<svg width="11" height="12" viewBox="0 0 11 12" fill="none" xmlns="http://www.w3.org/2000/svg">
<path d="M6.87481 5.99919V11.2518C6.9023 11.4518 6.83356 11.6651 6.67546 11.8051C6.61187 11.8669 6.53633 11.9159 6.45317 11.9493C6.37001 11.9828 6.28087 12 6.19084 12C6.10081 12 6.01167 11.9828 5.92851 11.9493C5.84535 11.9159 5.76981 11.8669 5.70622 11.8051L4.32454 10.4652C4.24961 10.3941 4.19263 10.3072 4.15805 10.2113C4.12347 10.1153 4.11223 10.0129 4.12519 9.91199V5.99919H4.10457L0.145116 1.07985C0.0334875 0.940892 -0.0168817 0.764735 0.005015 0.589873C0.0269117 0.415012 0.119294 0.255663 0.261975 0.146647C0.392582 0.0533261 0.536937 0 0.688166 0H10.3118C10.4631 0 10.6074 0.0533261 10.738 0.146647C10.8807 0.255663 10.9731 0.415012 10.995 0.589873C11.0169 0.764735 10.9665 0.940892 10.8549 1.07985L6.89543 5.99919H6.87481Z" fill="white"/>
</svg>
