<svg width="69" height="32" viewBox="0 0 69 32" fill="none" xmlns="http://www.w3.org/2000/svg">
<path d="M47.0822 0.401367C47.8486 0.811688 48.3581 1.40247 48.3537 2.2002C48.3505 2.73193 48.0608 3.17619 47.633 3.53223L47.6271 3.53711L47.6212 3.54102C47.2083 3.86304 46.743 4.09837 46.2287 4.24512L46.1828 4.25781L46.1349 4.26172L45.7921 4.28809L45.7853 4.28906H45.7785C43.4643 4.40105 41.3379 4.55829 39.4005 4.75684L38.0285 10.1133C39.1568 9.9486 40.1769 9.82838 41.0871 9.75391C42.1705 9.66526 42.8168 9.61149 43.0255 9.59375L43.0324 9.59277L44.1457 9.51367L44.2638 9.50586L44.3732 9.55469C45.1925 9.91775 45.7665 10.4863 45.7619 11.3125C45.7588 11.8294 45.4944 12.2786 45.091 12.6553C44.6944 13.0254 44.2374 13.2892 43.7267 13.4414L43.6886 13.4531L43.6505 13.458L43.2238 13.5127L43.213 13.5137C42.3524 13.6042 41.5468 13.6764 40.799 13.7295L40.798 13.7285C39.092 13.869 37.8318 13.9992 37.0099 14.1133L36.5197 16.0361C35.7375 19.5935 35.2174 21.9134 34.9562 22.9893C34.4845 24.9506 33.9297 26.5231 33.2834 27.6885C32.6297 28.867 31.7809 29.7474 30.7287 30.2988C29.7032 30.8459 28.4094 31.1193 26.8752 31.1475C26.0108 31.1633 25.2473 31.0692 24.5988 30.8496L24.3234 30.7451C23.6712 30.4649 23.1444 30.103 22.7834 29.6396L22.7794 29.6328L22.7746 29.627C22.4635 29.1995 22.2665 28.7499 22.258 28.2891C22.2478 27.7297 22.3944 27.223 22.7794 26.8604C23.1559 26.506 23.6807 26.3644 24.2648 26.3535C24.6055 26.3473 24.9344 26.4078 25.2111 26.5781C25.2162 26.581 25.2217 26.5849 25.2267 26.5879C25.2281 26.5888 25.2302 26.5899 25.2316 26.5908H25.2306C25.4609 26.7263 25.6802 26.9069 25.8888 27.125C26.1602 27.3685 26.3896 27.5386 26.5783 27.6455C26.7356 27.7253 26.986 27.7823 27.3644 27.7754C27.5627 27.7717 27.8354 27.6829 28.1935 27.4346C28.525 27.2047 28.8727 26.8267 29.2277 26.2725C29.5701 25.7377 29.8582 25.0559 30.0841 24.2168L30.3712 23.1416C30.1003 23.3302 29.8298 23.4931 29.5587 23.627L29.5597 23.6279C28.8741 23.9865 28.1066 24.1682 27.2687 24.1836C25.8879 24.2089 24.7507 23.7965 23.9289 22.8945L23.925 22.8896C23.1407 22.0044 22.7583 20.8371 22.7326 19.4404C22.7247 19.0072 22.7805 18.541 22.8947 18.0459L22.8957 18.043L24.6974 10.4453L24.6994 10.4385C24.828 9.93013 25.0786 9.50496 25.4826 9.22461V9.22559C25.9076 8.92422 26.5164 8.80587 27.2189 8.79297C27.7497 8.78327 28.2261 8.84635 28.5871 9.03906C28.7746 9.13933 28.9387 9.27931 29.0548 9.46582C29.1713 9.65306 29.2238 9.8626 29.2277 10.0762C29.233 10.3745 29.1576 10.7927 29.0324 11.2959L29.0334 11.2969L27.2345 19.0977C27.1894 19.2934 27.1685 19.4864 27.172 19.6777C27.1779 19.9971 27.2639 20.206 27.3898 20.3496C27.4806 20.453 27.6604 20.5529 28.0431 20.5459C28.5488 20.5366 29.1199 20.3779 29.7619 20.042C30.2517 19.7857 30.6763 19.4892 31.0421 19.1582C31.0501 18.9415 31.0831 18.7305 31.1437 18.5264H31.1427L35.1408 3.11914C35.2508 2.68997 35.3652 2.32155 35.4865 2.02051C35.6053 1.72557 35.7421 1.46522 35.9074 1.27441L35.9093 1.27246C36.2954 0.83236 36.91 0.685542 37.5871 0.689453C38.2299 0.693225 38.7956 0.772569 39.2668 0.944336C42.03 0.606664 44.5559 0.406951 46.8429 0.344727L46.9699 0.34082L47.0822 0.401367ZM26.5187 30.668L26.8664 30.6689V30.668C26.6403 30.6721 26.4236 30.6679 26.216 30.6562C26.3148 30.6618 26.4157 30.666 26.5187 30.668ZM24.7218 30.3857C24.7273 30.3876 24.733 30.3888 24.7384 30.3906C24.6609 30.364 24.585 30.3361 24.5119 30.3057L24.7218 30.3857ZM23.7209 29.8711C23.7675 29.9043 23.8164 29.9359 23.8664 29.9678C23.8114 29.9327 23.7583 29.8969 23.7072 29.8604L23.7209 29.8711ZM23.2365 27.1045C23.2214 27.1149 23.2069 27.1258 23.1925 27.1367C23.2069 27.1257 23.2215 27.1149 23.2365 27.1045ZM24.9728 26.9932C25.0217 27.0213 25.0713 27.0518 25.1203 27.0859C25.0715 27.0518 25.0225 27.0212 24.9738 26.9932C24.9298 26.965 24.8815 26.9407 24.8302 26.9199C24.8813 26.9407 24.9288 26.965 24.9728 26.9932ZM23.3419 27.0391C23.3262 27.0477 23.3112 27.0573 23.2961 27.0664C23.3112 27.0572 23.3262 27.0477 23.3419 27.0391ZM23.9084 26.8604C23.8323 26.8716 23.7602 26.8873 23.6916 26.9053C23.7602 26.8875 23.8323 26.8716 23.9084 26.8604ZM49.714 10.8955C49.972 9.91749 50.9742 9.33401 51.9523 9.5918C52.9305 9.84966 53.5149 10.8518 53.257 11.8301L50.132 23.6846L50.0753 23.8633C49.7492 24.7324 48.8107 25.2309 47.8937 24.9893C46.9767 24.7475 46.4063 23.8516 46.5509 22.9346L46.589 22.751L49.714 10.8955ZM63.1984 4.1416C63.6814 4.16757 64.1106 4.33987 64.4543 4.66797C64.6587 4.86338 64.8102 5.16093 64.8986 5.42285C64.9451 5.56094 64.9806 5.70974 64.9962 5.85547C65.0107 5.99081 65.0099 6.15609 64.9601 6.31641L64.9611 6.31738L63.9035 9.87402C64.0363 9.86556 64.1672 9.856 64.2961 9.84863L65.2931 9.80078C65.9433 9.75976 66.4668 9.74882 66.8527 9.76953C67.3066 9.79402 67.7215 9.95175 68.0002 10.3115C68.2679 10.6574 68.346 11.1085 68.3205 11.584C68.2946 12.0659 68.0529 12.468 67.6759 12.7842L67.675 12.7852C67.3333 13.0698 66.9448 13.2497 66.5177 13.3018L66.5002 13.3037L66.4816 13.3047L62.8087 13.4727L60.7482 20.1689C60.7393 20.4886 60.8118 20.7092 60.9308 20.8672C61.0408 20.9954 61.2182 21.0916 61.5304 21.1084C62.0039 21.1338 62.3557 21.0205 62.6261 20.8037C62.9849 20.5139 63.3836 20.0926 63.8195 19.5264L63.8205 19.5244C64.1518 19.0988 64.4383 18.7715 64.6711 18.5625C64.9558 18.3068 65.3001 18.1689 65.6857 18.1895C66.1819 18.2162 66.6356 18.3029 66.9533 18.5166H66.9543C66.9634 18.5222 66.9728 18.5283 66.9816 18.5342H66.9806C67.385 18.801 67.4784 19.2721 67.4552 19.7061C67.4443 19.9089 67.4099 20.144 67.3556 20.4033L67.3537 20.4092C67.3009 20.6462 67.2319 20.8642 67.1369 21.0352L67.1378 21.0361C66.5825 22.0684 65.7203 22.9235 64.5773 23.6064C63.4281 24.3054 62.1457 24.6142 60.7462 24.5391C59.3676 24.4649 58.2594 24.0752 57.5138 23.293L57.508 23.2861V23.2852C56.7689 22.485 56.4643 21.417 56.5324 20.1484C56.5398 20.0118 56.5802 19.8169 56.6339 19.5996C56.6909 19.3692 56.7733 19.073 56.8791 18.7139C57.0902 17.9965 57.3563 17.1398 57.6769 16.1455L58.4533 13.585L57.3732 13.6162H57.3537L57.3341 13.6152C56.9684 13.5955 56.646 13.4297 56.4494 13.0977C56.2875 12.8241 56.2281 12.5138 56.2453 12.1924C56.2774 11.5965 56.5246 11.0373 56.9396 10.5215H56.9406C57.0262 10.4145 57.1343 10.3627 57.1828 10.3418C57.2467 10.3142 57.3145 10.2942 57.3761 10.2793C57.5012 10.2492 57.6595 10.2252 57.839 10.2051C58.1944 10.1653 58.624 10.1313 59.1252 10.1006H59.1271L59.5617 10.0742L60.6593 6.29297L60.6691 6.26074L60.6828 6.23145C60.7929 5.98536 60.9427 5.66446 61.1212 5.37012C61.2902 5.09153 61.5225 4.77092 61.8185 4.58496L61.9875 4.48242C62.3816 4.25553 62.7745 4.11896 63.1984 4.1416ZM6.26382 3.67969C6.73904 3.67094 7.27988 3.63691 7.81851 3.84961C8.16204 3.95016 8.41394 4.2078 8.56754 4.41895C8.72292 4.63259 8.85778 4.9083 8.88199 5.13867L8.88492 5.15918L8.88589 5.2041L10.8839 17.9502C11.2091 17.4754 11.5868 16.9387 11.9962 16.3467C12.7502 15.2563 13.6292 13.9571 14.5412 12.458L14.5421 12.4561C16.3997 9.43417 17.8548 7.07634 18.9064 5.38379C19.2059 4.90164 19.3563 4.64596 19.5539 4.43164C19.7185 4.18675 19.9821 4.06931 20.1564 4.00879C20.3612 3.9377 20.5892 3.89526 20.7287 3.86719L20.7336 3.86621V3.86719C20.8931 3.83678 21.0093 3.81511 21.1242 3.80371C21.243 3.79195 21.3516 3.79219 21.4953 3.79395C22.1804 3.80234 22.8383 4.04424 23.0724 4.14258C23.3582 4.26269 23.4431 4.53784 23.4709 4.65918C23.5045 4.80683 23.5075 4.96397 23.5031 5.08398C23.4984 5.20954 23.4847 5.32778 23.4728 5.41211C23.4668 5.45459 23.4606 5.4901 23.4562 5.51562C23.4542 5.52716 23.4527 5.53763 23.4513 5.54492L23.4503 5.55176C23.4494 5.55794 23.4473 5.56731 23.4455 5.5791C23.4417 5.6033 23.4362 5.63934 23.4289 5.68555C23.4142 5.77832 23.3932 5.91387 23.3654 6.08496C23.3098 6.42766 23.2285 6.91414 23.1291 7.48828C22.9304 8.63572 22.6553 10.1385 22.3507 11.5527V11.5537C21.7452 14.3452 21.3348 16.2237 21.1203 17.1875C20.7307 19.1102 20.3658 20.8187 20.0255 22.3115L20.0236 22.3184C19.8975 22.839 19.7579 23.2695 19.5236 23.5781C19.2573 23.9286 18.9091 24.0761 18.507 24.127C17.5719 24.2451 16.8227 24.1244 16.3136 23.9658C16.0611 23.8871 15.8605 23.7969 15.7228 23.7168C15.6618 23.6813 15.5845 23.6318 15.5226 23.5703C15.5055 23.5533 15.4797 23.5247 15.4543 23.4873C15.4403 23.4668 15.4078 23.4162 15.3869 23.3438C15.3799 23.3272 15.373 23.3124 15.3683 23.2988C15.3423 23.2224 15.3312 23.1449 15.3253 23.0811C15.3137 22.9528 15.3187 22.8005 15.3322 22.6387C15.3595 22.3101 15.4283 21.8538 15.5304 21.2773C15.7338 20.1293 16.0792 18.4374 16.5334 16.1768L12.2882 22.8291H12.2873C11.9167 23.4471 11.2073 23.8272 10.465 23.8408C10.2137 23.8454 9.88461 23.8494 9.55679 23.8193C9.23647 23.7899 8.86931 23.7242 8.56168 23.5625L8.55289 23.5586C8.00619 23.2575 7.60048 22.6865 7.465 22.2246L7.45914 22.2031L7.45523 22.1807L6.19644 15.6963L5.84293 17.7871L5.04996 22.4766L5.04703 22.4893L5.0441 22.5029C4.97295 22.8137 4.8721 23.0662 4.69839 23.2695C4.52706 23.4699 4.31912 23.5797 4.14859 23.665C3.77547 23.8518 3.20485 23.9513 2.41324 23.9658C1.77822 23.9774 1.21438 23.8811 0.799957 23.5986V23.6006C0.666084 23.5112 0.481266 23.3857 0.352691 23.1758C0.220394 22.9598 0.180905 22.713 0.175934 22.4424C0.173203 22.2878 0.207676 22.0525 0.23941 21.8662C0.270998 21.6809 0.312086 21.4832 0.345856 21.3604L3.93961 6.53125C4.04108 6.10445 4.14854 5.73736 4.2648 5.43652C4.36956 5.16553 4.49204 4.92442 4.63785 4.7373C4.85536 4.34822 5.39405 3.69572 6.26382 3.67969ZM2.18765 23.4873H2.40445C2.25865 23.49 2.12199 23.4855 1.99429 23.4756C2.05663 23.4804 2.12101 23.4855 2.18765 23.4873ZM24.2824 22.5713C24.324 22.617 24.3668 22.6612 24.4103 22.7041C24.3669 22.6613 24.3248 22.6168 24.2834 22.5713C24.2158 22.495 24.1512 22.4163 24.09 22.335L24.2824 22.5713ZM6.16324 13.0205L7.78336 21.3604L6.16422 13.0186L6.16324 13.0205ZM19.8185 21.0469L20.0871 19.8076C20.1335 19.5903 20.1776 19.3689 20.2248 19.1445C20.0848 19.8092 19.9514 20.4438 19.8185 21.0469ZM28.7101 10.5088C28.7233 10.4269 28.734 10.3521 28.7404 10.2842V10.2734C28.7338 10.3441 28.7239 10.4226 28.7101 10.5088ZM27.632 9.28223C27.6149 9.28093 27.5977 9.27841 27.5802 9.27734L27.5109 9.27539C27.5523 9.27724 27.5927 9.27924 27.632 9.28223ZM52.8712 3.54102C54.187 3.55727 55.2407 4.63737 55.2248 5.95312C55.2086 7.26908 54.1286 8.32274 52.8127 8.30664C51.4968 8.29052 50.4433 7.21127 50.4591 5.89551C50.4753 4.57954 51.5553 3.5249 52.8712 3.54102ZM22.6242 7.58887C22.6338 7.53399 22.6452 7.48017 22.6544 7.42676L22.6574 7.40625C22.647 7.46626 22.635 7.52699 22.6242 7.58887ZM23.0226 5.08105C23.0137 5.2808 22.9795 5.46444 22.9787 5.46875L22.9972 5.35938C23.0077 5.28693 23.018 5.18617 23.0226 5.08105ZM21.3107 4.27246C21.3612 4.27138 21.4186 4.27158 21.4904 4.27246C21.5646 4.27338 21.6387 4.27741 21.7121 4.28418L21.7111 4.2832C21.638 4.27648 21.5633 4.27239 21.4894 4.27148C21.418 4.27061 21.3611 4.27041 21.3107 4.27148V4.27246Z" fill="url(#paint0_linear_1837_30691)"/>
<defs>
<linearGradient id="paint0_linear_1837_30691" x1="68.325" y1="15.745" x2="0.175781" y2="15.745" gradientUnits="userSpaceOnUse">
<stop stop-color="#369FFF"/>
<stop offset="1" stop-color="#237DF9"/>
</linearGradient>
</defs>
</svg>
