<svg width="25" height="25" viewBox="0 0 25 25" fill="none" xmlns="http://www.w3.org/2000/svg">
<path d="M22.185 20.4984L18.475 16.8184C19.9151 15.0228 20.6125 12.7437 20.4238 10.4497C20.2351 8.1557 19.1747 6.02118 17.4605 4.48504C15.7464 2.94891 13.5088 2.12791 11.2079 2.19087C8.90704 2.25383 6.71772 3.19596 5.09014 4.82354C3.46256 6.45112 2.52043 8.64044 2.45747 10.9413C2.39451 13.2422 3.21551 15.4798 4.75165 17.1939C6.28778 18.9081 8.4223 19.9685 10.7163 20.1572C13.0103 20.3459 15.2894 19.6485 17.085 18.2084L20.765 21.8884C20.858 21.9821 20.9686 22.0565 21.0904 22.1073C21.2123 22.1581 21.343 22.1842 21.475 22.1842C21.607 22.1842 21.7377 22.1581 21.8596 22.1073C21.9814 22.0565 22.092 21.9821 22.185 21.8884C22.3652 21.7019 22.466 21.4527 22.466 21.1934C22.466 20.9341 22.3652 20.6849 22.185 20.4984ZM11.475 18.2084C10.0905 18.2084 8.73715 17.7979 7.58601 17.0287C6.43487 16.2595 5.53766 15.1663 5.00785 13.8872C4.47803 12.6081 4.33941 11.2006 4.6095 9.84277C4.8796 8.4849 5.54629 7.23762 6.52525 6.25865C7.50422 5.27969 8.7515 4.613 10.1094 4.3429C11.4672 4.07281 12.8747 4.21143 14.1538 4.74124C15.4329 5.27106 16.5261 6.16826 17.2953 7.31941C18.0645 8.47055 18.475 9.82393 18.475 11.2084C18.475 13.0649 17.7375 14.8454 16.4247 16.1581C15.112 17.4709 13.3315 18.2084 11.475 18.2084Z" fill="#828282"/>
</svg>
