<svg width="26" height="26" viewBox="0 0 26 26" fill="none" xmlns="http://www.w3.org/2000/svg">
<path fill-rule="evenodd" clip-rule="evenodd" d="M12.5684 25.1367C19.5097 25.1367 25.1367 19.5097 25.1367 12.5684L25.1361 12.4372C21.5599 12.3408 18.3049 10.9519 15.8236 8.72373C13.2503 11.0345 9.84499 12.4427 6.11225 12.4427C3.96302 12.4427 1.9195 11.9754 0.0807207 11.136C0.0273994 11.6061 0 12.084 0 12.5684C0 19.5097 5.62704 25.1367 12.5684 25.1367ZM16.9997 5.4563C18.9171 7.6213 21.6405 9.04906 24.6997 9.27039C23.2508 3.92884 18.3684 0 12.5684 0C7.23265 0 2.67351 3.32493 0.849841 8.01588C2.42252 8.83625 4.211 9.30059 6.11225 9.30059C9.50903 9.30059 12.5572 7.81655 14.6475 5.45633C14.9456 5.11963 15.3738 4.92686 15.8236 4.92686C16.2733 4.92686 16.7015 5.11963 16.9997 5.4563Z" fill="url(#paint0_linear_3191_27964)"/>
<ellipse cx="8.08283" cy="16.131" rx="1.04474" ry="2.05283" fill="url(#paint1_linear_3191_27964)"/>
<ellipse cx="16.2947" cy="16.131" rx="1.04474" ry="2.05283" fill="url(#paint2_linear_3191_27964)"/>
<defs>
<linearGradient id="paint0_linear_3191_27964" x1="13.1968" y1="9.38437" x2="13.1968" y2="4.39893" gradientUnits="userSpaceOnUse">
<stop stop-color="#D1EEFF"/>
<stop offset="1" stop-color="#001238"/>
</linearGradient>
<linearGradient id="paint1_linear_3191_27964" x1="8.08283" y1="14.0781" x2="8.08283" y2="18.1838" gradientUnits="userSpaceOnUse">
<stop stop-color="#011238"/>
<stop offset="1" stop-color="#4D6290"/>
</linearGradient>
<linearGradient id="paint2_linear_3191_27964" x1="16.2947" y1="14.0781" x2="16.2947" y2="18.1838" gradientUnits="userSpaceOnUse">
<stop stop-color="#011238"/>
<stop offset="1" stop-color="#4D6290"/>
</linearGradient>
</defs>
</svg>
