<svg width="251" height="241" viewBox="0 0 251 241" fill="none" xmlns="http://www.w3.org/2000/svg">
<rect width="250.494" height="240.057" fill="white"/>
<path d="M62.5322 94.3096C74.1285 57.8423 113.091 37.6803 149.559 49.2764C186.026 60.8727 206.188 99.8355 194.592 136.303C187.762 157.78 171.44 173.598 151.727 180.607C148.512 181.827 145.215 182.818 141.858 183.564C133.719 185.599 125.25 185.954 116.969 184.607L109.023 183.315C104.925 182.649 101.857 179.198 101.674 175.05L101.552 172.278C101.113 162.311 106.183 152.907 114.753 147.797L116.104 146.991C123.283 142.71 132.161 142.425 139.601 146.236C141.859 147.393 143.885 148.878 145.634 150.614C158.277 143.832 166.877 130.49 166.877 115.139C166.877 92.9196 148.865 74.9074 126.646 74.9072C104.426 74.9073 86.4144 92.9196 86.4141 115.139C86.4141 121.673 87.9724 127.844 90.7373 133.3C95.6703 143.033 99.7299 154.367 95.7148 164.514L88.0928 183.774C86.0281 188.992 81.3948 192.758 75.8652 193.712C62.6703 195.988 52.6284 182.095 58.9297 170.28L63.6064 161.513C67.0737 155.012 66.6406 147.249 63.9697 140.383C58.4329 126.148 57.5435 109.998 62.5322 94.3096ZM125.145 89.8662C139.128 89.0115 151.158 99.6551 152.013 113.639C152.867 127.622 142.224 139.651 128.24 140.506C114.257 141.361 102.228 130.717 101.373 116.733C100.519 102.75 111.161 90.7212 125.145 89.8662Z" fill="url(#paint0_linear_4721_31411)"/>
<defs>
<linearGradient id="paint0_linear_4721_31411" x1="166.959" y1="87.249" x2="39.0931" y2="179.195" gradientUnits="userSpaceOnUse">
<stop stop-color="#2167FF"/>
<stop offset="1" stop-color="#2167FF" stop-opacity="0.1"/>
</linearGradient>
</defs>
</svg>
