<svg width="20" height="21" viewBox="0 0 20 21" fill="none" xmlns="http://www.w3.org/2000/svg">
<path d="M8.38281 0.711914C10.443 0.652833 12.4505 1.42328 13.9922 2.87109C15.5346 4.31964 16.4935 6.33736 16.6641 8.51074C16.8345 10.6841 16.2029 12.8405 14.9053 14.5361L14.6445 14.877L14.9424 15.1865L18.4775 18.8613C18.5609 18.953 18.6113 19.0793 18.6113 19.2148C18.6113 19.3494 18.5617 19.4749 18.4795 19.5664C18.4361 19.6122 18.3857 19.6475 18.332 19.6709C18.2785 19.6942 18.2215 19.7061 18.165 19.7061C18.1085 19.706 18.0516 19.6943 17.998 19.6709C17.9444 19.6474 17.8939 19.6122 17.8506 19.5664L17.8496 19.5645L14.3379 15.8848L14.0137 15.5449L13.6543 15.8467C12.0403 17.2033 9.9965 17.8577 7.94238 17.6807C5.88804 17.5036 3.97092 16.508 2.58789 14.8906C1.20427 13.2726 0.461632 11.1557 0.518555 8.97559C0.575537 6.79572 1.4275 4.72592 2.89258 3.19043C4.35715 1.65556 6.32249 0.771004 8.38281 0.711914ZM11.3789 2.30371C10.0642 1.73299 8.61517 1.5837 7.21777 1.875C5.82075 2.16632 4.54038 2.88416 3.53809 3.93457C2.53594 4.98484 1.85634 6.32108 1.58105 7.77148C1.30589 9.22169 1.44685 10.7254 1.9873 12.0928C2.52789 13.4604 3.44524 14.6331 4.62598 15.46C5.80695 16.2868 7.19796 16.7294 8.62305 16.7295C10.5349 16.7295 12.3636 15.9333 13.708 14.5244C15.0516 13.1163 15.8027 11.2112 15.8027 9.22949C15.8027 7.75139 15.3844 6.30477 14.5986 5.07227C13.8126 3.83946 12.6933 2.87431 11.3789 2.30371Z" fill="#333333" stroke="#828282"/>
</svg>
