<svg width="43" height="41" viewBox="0 0 43 41" fill="none" xmlns="http://www.w3.org/2000/svg">
<path d="M43 0.208984H5.36519C2.60377 0.208984 0.365189 2.44756 0.365189 5.20898V40.209L43 0.208984Z" fill="url(#paint0_linear_1837_32218)"/>
<path d="M11.9342 8.0834C12.631 6.83379 12.9792 6.20898 13.5 6.20898C14.0208 6.20898 14.369 6.83379 15.0658 8.0834L15.2462 8.4068C15.4442 8.7621 15.5432 8.93975 15.6972 9.0569C15.8512 9.17405 16.0437 9.2175 16.4287 9.3044L16.7785 9.3836C18.1314 9.68996 18.8074 9.84286 18.9685 10.3604C19.1291 10.8774 18.6682 11.417 17.7459 12.4955L17.5072 12.7744C17.2454 13.0807 17.114 13.2342 17.0551 13.4234C16.9963 13.6131 17.0161 13.8177 17.0557 14.2264L17.092 14.5987C17.2311 16.0381 17.301 16.7575 16.8797 17.0771C16.4584 17.3966 15.8248 17.1051 14.5587 16.5221L14.2304 16.3714C13.8707 16.2053 13.6908 16.1228 13.5 16.1228C13.3092 16.1228 13.1293 16.2053 12.7696 16.3714L12.4418 16.5221C11.1752 17.1051 10.5416 17.3966 10.1209 17.0776C9.69904 16.7575 9.76889 16.0381 9.90803 14.5987L9.94433 14.2269C9.98393 13.8177 10.0037 13.6131 9.94433 13.4239C9.88603 13.2342 9.75459 13.0807 9.49279 12.7749L9.2541 12.4955C8.33177 11.4175 7.87088 10.878 8.03148 10.3604C8.19207 9.84286 8.86911 9.68941 10.2221 9.3836L10.5719 9.3044C10.9563 9.2175 11.1483 9.17405 11.3028 9.0569C11.4573 8.93975 11.5558 8.7621 11.7538 8.4068L11.9342 8.0834Z" fill="white"/>
<defs>
<linearGradient id="paint0_linear_1837_32218" x1="21.5" y1="0.208984" x2="21.5" y2="40.209" gradientUnits="userSpaceOnUse">
<stop stop-color="#2167FF"/>
<stop offset="1" stop-color="#0800FF"/>
</linearGradient>
</defs>
</svg>
