<svg width="24" height="24" viewBox="0 0 24 24" fill="none" xmlns="http://www.w3.org/2000/svg">
<path d="M1 11.5238C1 17.3337 5.926 22.0457 12 22.0457C12.716 22.0457 13.4253 21.9803 14.128 21.8497C14.634 21.7557 14.886 21.7077 15.062 21.7337C15.238 21.7617 15.488 21.8937 15.988 22.1597C17.4 22.9117 19.048 23.1776 20.634 22.8817C20.0271 22.1337 19.6161 21.2463 19.438 20.2997C19.328 19.7157 19.6 19.1497 20.01 18.7357C21.92 16.8209 22.9948 14.2283 23 11.5238C23 5.71192 18.074 1 12 1C5.926 1 1 5.71192 1 11.5238Z" stroke="black" stroke-width="1.8" stroke-linecap="round" stroke-linejoin="round"/>
</svg>
