<svg width="11" height="11" viewBox="0 0 11 11" fill="none" xmlns="http://www.w3.org/2000/svg">
<path d="M3.93419 1.87441C4.63102 0.624804 4.97916 0 5.5 0C6.02084 0 6.36898 0.624804 7.06581 1.87441L7.24621 2.19781C7.4442 2.55312 7.5432 2.73077 7.6972 2.84792C7.85119 2.96507 8.04369 3.00852 8.42868 3.09542L8.77847 3.17462C10.1314 3.48097 10.8074 3.63387 10.9685 4.15143C11.1291 4.66843 10.6682 5.20798 9.7459 6.28654L9.50721 6.56539C9.24541 6.87174 9.11397 7.02519 9.05512 7.2144C8.99627 7.40415 9.01607 7.60875 9.05567 8.0174L9.09197 8.38975C9.23111 9.82911 9.30096 10.5485 8.87967 10.8681C8.45838 11.1876 7.8248 10.8961 6.55873 10.3131L6.23038 10.1624C5.87069 9.99631 5.69085 9.91381 5.5 9.91381C5.30915 9.91381 5.12931 9.99631 4.76962 10.1624L4.44182 10.3131C3.1752 10.8961 2.54162 11.1876 2.12088 10.8686C1.69904 10.5485 1.76889 9.82911 1.90803 8.38975L1.94433 8.01795C1.98393 7.60875 2.00373 7.40415 1.94433 7.21495C1.88603 7.0252 1.75459 6.87174 1.49279 6.56594L1.2541 6.28654C0.331772 5.20853 -0.129118 4.66898 0.0314785 4.15143C0.192075 3.63387 0.869109 3.48042 2.22208 3.17462L2.57187 3.09542C2.95631 3.00852 3.14826 2.96507 3.3028 2.84792C3.45735 2.73077 3.5558 2.55312 3.75379 2.19781L3.93419 1.87441Z" fill="white"/>
</svg>
