<svg width="11" height="12" viewBox="0 0 11 12" fill="none" xmlns="http://www.w3.org/2000/svg">
<path d="M3.93419 2.0834C4.63102 0.833788 4.97916 0.208984 5.5 0.208984C6.02084 0.208984 6.36898 0.833788 7.06581 2.0834L7.24621 2.4068C7.4442 2.7621 7.5432 2.93975 7.6972 3.0569C7.85119 3.17405 8.04369 3.2175 8.42868 3.3044L8.77847 3.3836C10.1314 3.68996 10.8074 3.84286 10.9685 4.36041C11.1291 4.87741 10.6682 5.41697 9.7459 6.49552L9.50721 6.77438C9.24541 7.08073 9.11397 7.23418 9.05512 7.42338C8.99627 7.61313 9.01607 7.81773 9.05567 8.22639L9.09197 8.59874C9.23111 10.0381 9.30096 10.7575 8.87967 11.0771C8.45838 11.3966 7.8248 11.1051 6.55873 10.5221L6.23038 10.3714C5.87069 10.2053 5.69085 10.1228 5.5 10.1228C5.30915 10.1228 5.12931 10.2053 4.76962 10.3714L4.44182 10.5221C3.1752 11.1051 2.54162 11.3966 2.12088 11.0776C1.69904 10.7575 1.76889 10.0381 1.90803 8.59874L1.94433 8.22694C1.98393 7.81773 2.00373 7.61313 1.94433 7.42393C1.88603 7.23418 1.75459 7.08073 1.49279 6.77493L1.2541 6.49552C0.331772 5.41752 -0.129118 4.87796 0.0314785 4.36041C0.192075 3.84286 0.869109 3.68941 2.22208 3.3836L2.57187 3.3044C2.95631 3.2175 3.14826 3.17405 3.3028 3.0569C3.45735 2.93975 3.5558 2.7621 3.75379 2.4068L3.93419 2.0834Z" fill="#2167FF"/>
</svg>
