<svg width="25" height="22" viewBox="0 0 25 22" fill="none" xmlns="http://www.w3.org/2000/svg">
<path d="M12.0928 2.16586C14.6943 -0.161688 17.6071 -0.487984 19.9688 0.591642C22.4605 1.73128 24.1874 4.37675 24.1875 7.42758C24.1875 10.4268 22.9389 12.7144 21.2998 14.5594C19.6911 16.3718 17.6384 17.8202 16.0342 19.0858C15.4571 19.5403 14.8396 20.0247 14.2119 20.3914C13.5854 20.757 12.8699 21.0545 12.0938 21.0545C11.3176 21.0545 10.6021 20.7581 9.97559 20.3914C9.34899 20.0247 8.73042 19.5403 8.15332 19.0858C6.54908 17.8213 4.49644 16.3707 2.8877 14.5594C1.24857 12.7155 0 10.4268 0 7.42758C9.27109e-05 4.37675 1.72816 1.73128 4.21875 0.591642C6.57983 -0.487739 9.49323 -0.161153 12.0928 2.16586Z" fill="url(#paint0_linear_1837_31857)"/>
<defs>
<linearGradient id="paint0_linear_1837_31857" x1="12.0938" y1="0" x2="12.0938" y2="21.0545" gradientUnits="userSpaceOnUse">
<stop stop-color="#3C89F3"/>
<stop offset="1" stop-color="#0800FF"/>
</linearGradient>
</defs>
</svg>
