<svg width="27" height="23" viewBox="0 0 27 23" fill="none" xmlns="http://www.w3.org/2000/svg">
<path d="M13.0928 3.16602L12.4925 3.83659L13.0926 4.37379L13.6929 3.83675L13.0928 3.16602ZM20.9688 1.5918L21.3431 0.77334L21.3429 0.773274L20.9688 1.5918ZM25.1875 8.42773H26.0875V8.42771L25.1875 8.42773ZM22.2998 15.5596L21.627 14.9618L21.6267 14.9621L22.2998 15.5596ZM17.0342 20.0859L17.591 20.793L17.5916 20.7925L17.0342 20.0859ZM15.2119 21.3916L15.6655 22.169L15.6659 22.1687L15.2119 21.3916ZM10.9756 21.3916L10.521 22.1683L10.521 22.1684L10.9756 21.3916ZM9.15332 20.0859L8.59619 20.7928L8.59649 20.793L9.15332 20.0859ZM3.8877 15.5596L4.56059 14.9619L4.56034 14.9616L3.8877 15.5596ZM1 8.42773L0.1 8.42771V8.42773H1ZM5.21875 1.5918L4.84456 0.773274L4.84427 0.773404L5.21875 1.5918ZM13.0928 3.16602L13.6929 3.83675C16.0537 1.72449 18.5887 1.49334 20.5946 2.41032L20.9688 1.5918L21.3429 0.773274C18.6255 -0.468999 15.3348 -0.0475535 12.4927 2.49528L13.0928 3.16602ZM20.9688 1.5918L20.5944 2.41025C22.752 3.39705 24.2874 5.71352 24.2875 8.42776L25.1875 8.42773L26.0875 8.42771C26.0874 5.0403 24.169 2.06582 21.3431 0.77334L20.9688 1.5918ZM25.1875 8.42773H24.2875C24.2875 11.1461 23.1657 13.2298 21.627 14.9618L22.2998 15.5596L22.9726 16.1573C24.7121 14.1993 26.0875 11.7079 26.0875 8.42773H25.1875ZM22.2998 15.5596L21.6267 14.9621C20.0874 16.6963 18.1345 18.0715 16.4767 19.3794L17.0342 20.0859L17.5916 20.7925C19.1423 19.5691 21.2948 18.0476 22.9729 16.157L22.2998 15.5596ZM17.0342 20.0859L16.4773 19.3789C15.8913 19.8404 15.3226 20.2846 14.7579 20.6145L15.2119 21.3916L15.6659 22.1687C16.3567 21.7651 17.0229 21.2404 17.591 20.793L17.0342 20.0859ZM15.2119 21.3916L14.7584 20.6142C14.1943 20.9433 13.6416 21.1547 13.0938 21.1547V22.0547V22.9547C14.0982 22.9547 14.9764 22.571 15.6655 22.169L15.2119 21.3916ZM13.0938 22.0547V21.1547C12.5454 21.1547 11.9926 20.944 11.4302 20.6148L10.9756 21.3916L10.521 22.1684C11.2117 22.5726 12.0898 22.9547 13.0938 22.9547V22.0547ZM10.9756 21.3916L11.4302 20.6149C10.8661 20.2847 10.2956 19.8399 9.71015 19.3789L9.15332 20.0859L8.59649 20.793C9.16529 21.2409 9.83191 21.765 10.521 22.1683L10.9756 21.3916ZM9.15332 20.0859L9.71045 19.3791C8.05368 18.0732 6.09998 16.695 4.56059 14.9619L3.8877 15.5596L3.2148 16.1572C4.8929 18.0466 7.04448 19.5697 8.59619 20.7928L9.15332 20.0859ZM3.8877 15.5596L4.56034 14.9616C3.02187 13.231 1.9 11.1462 1.9 8.42773H1H0.1C0.1 11.7078 1.47528 14.2004 3.21505 16.1575L3.8877 15.5596ZM1 8.42773L1.9 8.42776C1.90008 5.71371 3.43652 3.39705 5.59323 2.41019L5.21875 1.5918L4.84427 0.773404C2.0198 2.06582 0.100103 5.04011 0.1 8.42771L1 8.42773ZM5.21875 1.5918L5.59294 2.41032C7.59827 1.49357 10.1337 1.72506 12.4925 3.83659L13.0928 3.16602L13.693 2.49544C10.8528 -0.0470605 7.5614 -0.468745 4.84456 0.773274L5.21875 1.5918Z" fill="black"/>
</svg>
