<svg width="24" height="25" viewBox="0 0 24 25" fill="none" xmlns="http://www.w3.org/2000/svg">
<path d="M7 17.209C5.61667 17.209 4.43767 16.7213 3.463 15.746C2.48833 14.7707 2.00067 13.5917 2 12.209C1.99933 10.8263 2.487 9.64732 3.463 8.67198C4.439 7.69665 5.618 7.20898 7 7.20898H10C10.2833 7.20898 10.521 7.30498 10.713 7.49698C10.905 7.68898 11.0007 7.92632 11 8.20898C10.9993 8.49165 10.9033 8.72932 10.712 8.92198C10.5207 9.11465 10.2833 9.21032 10 9.20898H7C6.16667 9.20898 5.45833 9.50065 4.875 10.084C4.29167 10.6673 4 11.3757 4 12.209C4 13.0423 4.29167 13.7507 4.875 14.334C5.45833 14.9173 6.16667 15.209 7 15.209H10C10.2833 15.209 10.521 15.305 10.713 15.497C10.905 15.689 11.0007 15.9263 11 16.209C10.9993 16.4917 10.9033 16.7293 10.712 16.922C10.5207 17.1147 10.2833 17.2103 10 17.209H7ZM9 13.209C8.71667 13.209 8.47933 13.113 8.288 12.921C8.09667 12.729 8.00067 12.4917 8 12.209C7.99933 11.9263 8.09533 11.689 8.288 11.497C8.48067 11.305 8.718 11.209 9 11.209H15C15.2833 11.209 15.521 11.305 15.713 11.497C15.905 11.689 16.0007 11.9263 16 12.209C15.9993 12.4917 15.9033 12.7293 15.712 12.922C15.5207 13.1147 15.2833 13.2103 15 13.209H9ZM14 17.209C13.7167 17.209 13.4793 17.113 13.288 16.921C13.0967 16.729 13.0007 16.4917 13 16.209C12.9993 15.9263 13.0953 15.689 13.288 15.497C13.4807 15.305 13.718 15.209 14 15.209H17C17.8333 15.209 18.5417 14.9173 19.125 14.334C19.7083 13.7507 20 13.0423 20 12.209C20 11.3757 19.7083 10.6673 19.125 10.084C18.5417 9.50065 17.8333 9.20898 17 9.20898H14C13.7167 9.20898 13.4793 9.11298 13.288 8.92098C13.0967 8.72898 13.0007 8.49165 13 8.20898C12.9993 7.92632 13.0953 7.68898 13.288 7.49698C13.4807 7.30498 13.718 7.20898 14 7.20898H17C18.3833 7.20898 19.5627 7.69665 20.538 8.67198C21.5133 9.64732 22.0007 10.8263 22 12.209C21.9993 13.5917 21.5117 14.771 20.537 15.747C19.5623 16.723 18.3833 17.2103 17 17.209H14Z" fill="#368BFF"/>
</svg>
