<svg width="20" height="19" viewBox="0 0 20 19" fill="none" xmlns="http://www.w3.org/2000/svg">
<path d="M12.9342 5.0834C13.631 3.83379 13.9792 3.20898 14.5 3.20898C15.0208 3.20898 15.369 3.83379 16.0658 5.0834L16.2462 5.4068C16.4442 5.7621 16.5432 5.93975 16.6972 6.0569C16.8512 6.17405 17.0437 6.2175 17.4287 6.3044L17.7785 6.3836C19.1314 6.68996 19.8074 6.84286 19.9685 7.36041C20.1291 7.87741 19.6682 8.41697 18.7459 9.49552L18.5072 9.77438C18.2454 10.0807 18.114 10.2342 18.0551 10.4234C17.9963 10.6131 18.0161 10.8177 18.0557 11.2264L18.092 11.5987C18.2311 13.0381 18.301 13.7575 17.8797 14.0771C17.4584 14.3966 16.8248 14.1051 15.5587 13.5221L15.2304 13.3714C14.8707 13.2053 14.6908 13.1228 14.5 13.1228C14.3092 13.1228 14.1293 13.2053 13.7696 13.3714L13.4418 13.5221C12.1752 14.1051 11.5416 14.3966 11.1209 14.0776C10.699 13.7575 10.7689 13.0381 10.908 11.5987L10.9443 11.2269C10.9839 10.8177 11.0037 10.6131 10.9443 10.4239C10.886 10.2342 10.7546 10.0807 10.4928 9.77493L10.2541 9.49552C9.33177 8.41752 8.87088 7.87796 9.03148 7.36041C9.19207 6.84286 9.86911 6.68941 11.2221 6.3836L11.5719 6.3044C11.9563 6.2175 12.1483 6.17405 12.3028 6.0569C12.4573 5.93975 12.5558 5.7621 12.7538 5.4068L12.9342 5.0834Z" fill="#2167FF"/>
<path d="M2.50357 6.40179C2.94701 5.60659 3.16856 5.20898 3.5 5.20898C3.83144 5.20898 4.05299 5.60659 4.49643 6.40179L4.61122 6.60759C4.73722 6.83369 4.80022 6.94675 4.89822 7.0213C4.99621 7.09585 5.11871 7.1235 5.36371 7.1788L5.5863 7.2292C6.44728 7.42415 6.87742 7.52145 6.97997 7.8508C7.08217 8.1798 6.78887 8.52316 6.20194 9.20951L6.05004 9.38696C5.88344 9.58191 5.7998 9.67956 5.76235 9.79996C5.7249 9.92071 5.7375 10.0509 5.7627 10.311L5.7858 10.5479C5.87434 11.4639 5.91879 11.9217 5.6507 12.125C5.38261 12.3284 4.97941 12.1429 4.17373 11.7719L3.96479 11.676C3.73589 11.5703 3.62145 11.5178 3.5 11.5178C3.37855 11.5178 3.26411 11.5703 3.03521 11.676L2.82662 11.7719C2.02058 12.1429 1.61739 12.3284 1.34965 12.1254C1.08121 11.9217 1.12566 11.4639 1.2142 10.5479L1.2373 10.3113C1.2625 10.0509 1.2751 9.92071 1.2373 9.80031C1.2002 9.67956 1.11656 9.58191 0.94996 9.38731L0.798064 9.20951C0.211127 8.52351 -0.0821658 8.18015 0.0200318 7.8508C0.122229 7.52145 0.553069 7.4238 1.41405 7.2292L1.63664 7.1788C1.88129 7.1235 2.00344 7.09585 2.10178 7.0213C2.20013 6.94675 2.26278 6.83369 2.38878 6.60759L2.50357 6.40179Z" fill="#368BFF"/>
<path d="M11.866 16.1983C11.9566 16.4734 11.8074 16.772 11.5263 16.8418C10.6776 17.0525 9.79528 17.1028 8.92521 16.9882C7.88147 16.8507 6.88219 16.4796 6.00174 15.9024C5.12129 15.3253 4.38236 14.557 3.83995 13.6547C3.3878 12.9026 3.08191 12.0735 2.93662 11.2112C2.88849 10.9255 3.10275 10.6696 3.3912 10.643C3.67964 10.6164 3.9327 10.8293 3.98459 11.1143C4.11303 11.8196 4.36814 12.4974 4.73899 13.1143C5.20012 13.8813 5.82831 14.5345 6.57682 15.0251C7.32533 15.5158 8.17487 15.8313 9.06219 15.9482C9.7758 16.0422 10.4991 16.0057 11.1971 15.8422C11.4791 15.7761 11.7753 15.9232 11.866 16.1983Z" fill="#368BFF"/>
<path d="M7.8755 2.83012C7.77726 2.507 7.95927 2.16262 8.28973 2.09295C9.11666 1.91863 9.97005 1.89515 10.8085 2.02543C11.8487 2.18707 12.8391 2.58128 13.706 3.17869C14.5728 3.7761 15.2937 4.56133 15.815 5.47593C16.2352 6.21305 16.517 7.01891 16.6485 7.85373C16.701 8.18735 16.4439 8.48002 16.107 8.50323C15.7701 8.52645 15.4814 8.27115 15.4227 7.93856C15.3078 7.28719 15.0816 6.65885 14.7525 6.08158C14.3223 5.32678 13.7273 4.67874 13.0119 4.18571C12.2966 3.69267 11.4792 3.36735 10.6207 3.23394C9.96409 3.13191 9.29637 3.14415 8.64675 3.2686C8.31505 3.33214 7.97373 3.15325 7.8755 2.83012Z" fill="#2167FF"/>
</svg>
