<svg width="21" height="19" viewBox="0 0 21 19" fill="none" xmlns="http://www.w3.org/2000/svg">
<path d="M14.0655 4.87441C14.7455 3.6248 15.0852 3 15.5934 3C16.1016 3 16.4413 3.6248 17.1213 4.87441L17.2973 5.19781C17.4905 5.55312 17.5871 5.73077 17.7374 5.84792C17.8877 5.96507 18.0755 6.00852 18.4512 6.09542L18.7925 6.17462C20.1127 6.48097 20.7723 6.63387 20.9295 7.15143C21.0862 7.66843 20.6365 8.20798 19.7365 9.28654L19.5036 9.56539C19.2481 9.87174 19.1198 10.0252 19.0624 10.2144C19.005 10.4041 19.0243 10.6087 19.063 11.0174L19.0984 11.3898C19.2342 12.8291 19.3023 13.5485 18.8912 13.8681C18.4801 14.1876 17.8619 13.8961 16.6265 13.3131L16.3061 13.1624C15.9551 12.9963 15.7796 12.9138 15.5934 12.9138C15.4072 12.9138 15.2317 12.9963 14.8807 13.1624L14.5608 13.3131C13.3249 13.8961 12.7066 14.1876 12.2961 13.8686C11.8845 13.5485 11.9526 12.8291 12.0884 11.3898L12.1238 11.018C12.1625 10.6087 12.1818 10.4041 12.1238 10.2149C12.0669 10.0252 11.9387 9.87174 11.6832 9.56594L11.4503 9.28654C10.5503 8.20853 10.1006 7.66898 10.2573 7.15143C10.414 6.63387 11.0746 6.48042 12.3948 6.17462L12.7362 6.09542C13.1113 6.00852 13.2986 5.96507 13.4494 5.84792C13.6002 5.73077 13.6963 5.55312 13.8895 5.19781L14.0655 4.87441Z" fill="white"/>
<path d="M2.44295 6.19281C2.87566 5.3976 3.09184 5 3.41525 5C3.73867 5 3.95485 5.3976 4.38755 6.19281L4.49957 6.39861C4.62252 6.62471 4.68399 6.73776 4.77961 6.81231C4.87524 6.88686 4.99477 6.91451 5.23383 6.96981L5.45104 7.02021C6.29117 7.21516 6.7109 7.31246 6.81096 7.64182C6.91068 7.97082 6.62449 8.31417 6.05177 9.00053L5.90355 9.17798C5.74099 9.37293 5.65936 9.47058 5.62282 9.59098C5.58628 9.71173 5.59857 9.84193 5.62316 10.102L5.6457 10.3389C5.73211 11.2549 5.77548 11.7127 5.51388 11.916C5.25228 12.1194 4.85885 11.9339 4.07267 11.5629L3.86879 11.467C3.64544 11.3613 3.53376 11.3088 3.41525 11.3088C3.29675 11.3088 3.18507 11.3613 2.96172 11.467L2.75817 11.5629C1.97166 11.9339 1.57823 12.1194 1.31697 11.9164C1.05503 11.7127 1.0984 11.2549 1.1848 10.3389L1.20734 10.1023C1.23193 9.84193 1.24423 9.71173 1.20734 9.59133C1.17114 9.47058 1.08952 9.37293 0.926958 9.17833L0.77874 9.00053C0.206015 8.31452 -0.0801763 7.97117 0.0195467 7.64182C0.11927 7.31246 0.539678 7.21481 1.37981 7.02021L1.59702 6.96981C1.83574 6.91451 1.95493 6.88686 2.05089 6.81231C2.14686 6.73776 2.20799 6.62471 2.33094 6.39861L2.44295 6.19281Z" fill="white"/>
<path d="M12.1352 15.9893C12.2279 16.2644 12.0794 16.5616 11.7971 16.6306C10.9263 16.8432 10.0208 16.8942 9.12789 16.7792C8.06054 16.6417 7.03865 16.2706 6.13828 15.6934C5.23792 15.1163 4.48227 14.348 3.92759 13.4457C3.466 12.6949 3.15347 11.8674 3.00458 11.0066C2.95463 10.7178 3.17115 10.4608 3.46448 10.4344C3.76108 10.4076 4.02297 10.6267 4.07788 10.918C4.20999 11.6188 4.47001 12.2921 4.84697 12.9053C5.31853 13.6723 5.96094 14.3255 6.72638 14.8161C7.49182 15.3068 8.36058 15.6223 9.26798 15.7392C10.0009 15.8336 10.7438 15.7964 11.4604 15.631C11.7436 15.5657 12.0425 15.7142 12.1352 15.9893Z" fill="white"/>
<path d="M8.05415 2.62114C7.9537 2.29801 8.13487 1.9552 8.46652 1.88629C9.31567 1.70986 10.1923 1.68558 11.0535 1.81644C12.1173 1.97809 13.1301 2.37229 14.0165 2.9697C14.903 3.56711 15.6402 4.35234 16.1733 5.26694C16.6021 6.00248 16.8899 6.80646 17.0247 7.63937C17.0793 7.97681 16.8195 8.27082 16.477 8.29391C16.1304 8.31726 15.8317 8.05442 15.7693 7.71422C15.651 7.06833 15.4206 6.44532 15.0868 5.8726C14.6468 5.11779 14.0384 4.46975 13.3068 3.97672C12.5752 3.48369 11.7394 3.15836 10.8614 3.02496C10.1862 2.92235 9.49946 2.93531 8.83159 3.06173C8.49869 3.12475 8.1546 2.94426 8.05415 2.62114Z" fill="white"/>
</svg>
