<svg width="20" height="20" viewBox="0 0 20 20" fill="none" xmlns="http://www.w3.org/2000/svg">
<g clip-path="url(#clip0_1837_33516)">
<path d="M14.0441 1.34668C14.5727 1.40382 15.0974 1.46335 15.6184 1.52525C16.2865 1.60353 16.9086 1.90513 17.3839 2.38119C17.8592 2.85725 18.1598 3.47985 18.237 4.14811C18.295 4.6643 18.3522 5.18573 18.4084 5.71239M5.45266 18.6524C4.92409 18.5953 4.39933 18.5357 3.87838 18.4738C3.21025 18.3955 2.58814 18.0939 2.11286 17.6179C1.63758 17.1418 1.33699 16.5192 1.25981 15.851L1.08838 14.2867" stroke="white" stroke-linecap="round"/>
<path d="M1.08984 5.80839C4.67518 5.44886 8.28401 5.38484 11.8798 5.61696C12.5348 5.65902 13.152 5.93817 13.616 6.40222C14.0801 6.86628 14.3592 7.48347 14.4013 8.13839C14.6329 11.7343 14.5684 15.3431 14.2084 18.9284" stroke="white" stroke-linecap="round" stroke-linejoin="round"/>
<path d="M5.7913 1.07129C5.43177 4.65662 5.36775 8.26546 5.59987 11.8613C5.68702 13.2184 6.76416 14.2941 8.1213 14.3827C11.7184 14.6141 15.3099 14.5513 18.9113 14.1913" stroke="white" stroke-linecap="round" stroke-linejoin="round"/>
</g>
<defs>
<clipPath id="clip0_1837_33516">
<rect width="20" height="20" fill="white"/>
</clipPath>
</defs>
</svg>
