<svg width="19" height="21" viewBox="0 0 19 21" fill="none" xmlns="http://www.w3.org/2000/svg">
<path d="M17.217 10.8703C17.0641 10.6879 16.9797 10.4533 16.9797 10.2103C16.9797 9.96744 17.0641 9.73283 17.217 9.55034L18.4384 8.11034C18.573 7.95301 18.6566 7.75505 18.6771 7.54485C18.6977 7.33465 18.6542 7.12303 18.5529 6.94034L16.6445 3.48034C16.5442 3.29787 16.3915 3.15322 16.2082 3.06703C16.0249 2.98084 15.8203 2.9575 15.6235 3.00034L13.8296 3.38034C13.6014 3.42977 13.3637 3.38993 13.1616 3.26834C12.9594 3.14676 12.8067 2.95183 12.7323 2.72034L12.1502 0.890344C12.0862 0.691723 11.9643 0.519209 11.8016 0.397186C11.6389 0.275163 11.4438 0.209803 11.2438 0.210344H7.42696C7.21888 0.198962 7.01296 0.259271 6.84066 0.382058C6.66836 0.504846 6.53915 0.683363 6.47276 0.890344L5.93841 2.72034C5.86398 2.95183 5.71128 3.14676 5.50913 3.26834C5.30697 3.38993 5.06934 3.42977 4.84108 3.38034L2.99948 3.00034C2.81298 2.97272 2.62285 3.00357 2.45305 3.08898C2.28325 3.1744 2.14137 3.31057 2.04528 3.48034L0.136881 6.94034C0.0330258 7.12099 -0.0136707 7.33143 0.00346712 7.54157C0.020605 7.75171 0.1007 7.95078 0.2323 8.11034L1.44413 9.55034C1.59711 9.73283 1.68147 9.96744 1.68147 10.2103C1.68147 10.4533 1.59711 10.6879 1.44413 10.8703L0.2323 12.3103C0.1007 12.4699 0.020605 12.669 0.00346712 12.8791C-0.0136707 13.0893 0.0330258 13.2997 0.136881 13.4803L2.04528 16.9403C2.14556 17.1228 2.29825 17.2675 2.48159 17.3537C2.66492 17.4398 2.86954 17.4632 3.06627 17.4203L4.86016 17.0403C5.08842 16.9909 5.32605 17.0308 5.52821 17.1523C5.73037 17.2739 5.88307 17.4689 5.95749 17.7003L6.53955 19.5303C6.60594 19.7373 6.73516 19.9158 6.90746 20.0386C7.07976 20.1614 7.28567 20.2217 7.49375 20.2103H11.3105C11.5106 20.2109 11.7057 20.1455 11.8684 20.0235C12.0311 19.9015 12.153 19.729 12.217 19.5303L12.7991 17.7003C12.8735 17.4689 13.0262 17.2739 13.2284 17.1523C13.4305 17.0308 13.6682 16.9909 13.8964 17.0403L15.6903 17.4203C15.887 17.4632 16.0917 17.4398 16.275 17.3537C16.4583 17.2675 16.611 17.1228 16.7113 16.9403L18.6197 13.4803C18.721 13.2977 18.7645 13.086 18.7439 12.8758C18.7234 12.6656 18.6398 12.4677 18.5052 12.3103L17.217 10.8703ZM15.7953 12.2103L16.5586 13.1103L15.3373 15.3303L14.2113 15.0903C13.5241 14.9431 12.8092 15.0655 12.2023 15.4341C11.5955 15.8028 11.1389 16.3922 10.9193 17.0903L10.5567 18.2103H8.11398L7.77047 17.0703C7.55086 16.3722 7.09431 15.7828 6.48746 15.4141C5.88061 15.0455 5.16572 14.9231 4.47848 15.0703L3.35253 15.3103L2.11207 13.1003L2.87543 12.2003C3.34485 11.6503 3.60437 10.9383 3.60437 10.2003C3.60437 9.46241 3.34485 8.75037 2.87543 8.20034L2.11207 7.30034L3.33345 5.10034L4.4594 5.34034C5.14663 5.48757 5.86153 5.36522 6.46837 4.99654C7.07522 4.62786 7.53178 4.0385 7.75138 3.34034L8.11398 2.21034H10.5567L10.9193 3.35034C11.1389 4.0485 11.5955 4.63786 12.2023 5.00654C12.8092 5.37522 13.5241 5.49757 14.2113 5.35034L15.3373 5.11034L16.5586 7.33034L15.7953 8.23034C15.3311 8.7791 15.0748 9.48703 15.0748 10.2203C15.0748 10.9537 15.3311 11.6616 15.7953 12.2103ZM9.33535 6.21034C8.58046 6.21034 7.84253 6.44494 7.21486 6.88447C6.58719 7.32399 6.09798 7.94871 5.8091 8.67961C5.52021 9.41051 5.44463 10.2148 5.5919 10.9907C5.73917 11.7666 6.10268 12.4794 6.63647 13.0388C7.17026 13.5982 7.85035 13.9791 8.59073 14.1335C9.33112 14.2878 10.0985 14.2086 10.796 13.9059C11.4934 13.6031 12.0895 13.0904 12.5089 12.4326C12.9283 11.7748 13.1521 11.0015 13.1521 10.2103C13.1521 9.14948 12.75 8.13206 12.0342 7.38192C11.3184 6.63177 10.3476 6.21034 9.33535 6.21034ZM9.33535 12.2103C8.95791 12.2103 8.58894 12.093 8.2751 11.8733C7.96127 11.6535 7.71667 11.3412 7.57223 10.9757C7.42778 10.6103 7.38999 10.2081 7.46363 9.82016C7.53726 9.4322 7.71902 9.07584 7.98591 8.79613C8.25281 8.51643 8.59285 8.32594 8.96304 8.24877C9.33324 8.1716 9.71695 8.21121 10.0657 8.36259C10.4144 8.51396 10.7124 8.77031 10.9221 9.0992C11.1318 9.4281 11.2438 9.81478 11.2438 10.2103C11.2438 10.7408 11.0427 11.2495 10.6848 11.6246C10.3269 11.9996 9.84149 12.2103 9.33535 12.2103Z" fill="#B4B4B4"/>
</svg>
