<svg width="37" height="39" viewBox="0 0 37 39" fill="none" xmlns="http://www.w3.org/2000/svg">
<path d="M13.55 33.1256H8.6C6.84957 33.1256 5.17083 32.3969 3.93309 31.0997C2.69535 29.8026 2 28.0432 2 26.2088V10.646C2 8.81155 2.69535 7.05223 3.93309 5.75508C5.17083 4.45793 6.84957 3.7292 8.6 3.7292H26.75C28.5004 3.7292 30.1792 4.45793 31.4169 5.75508C32.6546 7.05223 33.35 8.81155 33.35 10.646V15.8336M11.9 2V5.4584M23.45 2V5.4584M2 12.3752H33.35M29.225 25.5915L26.75 28.1853" stroke="#2167FF" stroke-width="3" stroke-linecap="round" stroke-linejoin="round"/>
<path d="M26.75 36.585C31.3063 36.585 35 32.714 35 27.939C35 23.1639 31.3063 19.293 26.75 19.293C22.1936 19.293 18.5 23.1639 18.5 27.939C18.5 32.714 22.1936 36.585 26.75 36.585Z" stroke="#2167FF" stroke-width="3" stroke-linecap="round" stroke-linejoin="round"/>
</svg>
