<svg width="21" height="21" viewBox="0 0 21 21" fill="none" xmlns="http://www.w3.org/2000/svg">
<path d="M7.67939 18.1932H4.81679C3.80452 18.1932 2.8337 17.7906 2.11791 17.0741C1.40213 16.3576 1 15.3858 1 14.3725V5.77588C1 4.76257 1.40213 3.79075 2.11791 3.07423C2.8337 2.35771 3.80452 1.95518 4.81679 1.95518H15.313C16.3253 1.95518 17.2961 2.35771 18.0119 3.07423C18.7276 3.79075 19.1298 4.76257 19.1298 5.77588V8.64141M6.72519 1V2.91035M13.4046 1V2.91035M1 6.73105H19.1298M16.7443 14.0315L15.313 15.4642" stroke="#909397" stroke-width="1.5" stroke-linecap="round" stroke-linejoin="round"/>
<path d="M15.313 20.1045C17.9479 20.1045 20.084 17.9663 20.084 15.3286C20.084 12.691 17.9479 10.5527 15.313 10.5527C12.678 10.5527 10.542 12.691 10.542 15.3286C10.542 17.9663 12.678 20.1045 15.313 20.1045Z" stroke="#909397" stroke-width="1.5" stroke-linecap="round" stroke-linejoin="round"/>
</svg>
