<svg width="7" height="12" viewBox="0 0 7 12" fill="none" xmlns="http://www.w3.org/2000/svg">
<path d="M6.49805 5.70907C6.49805 5.92608 6.41507 6.11117 6.24275 6.27712L1.26438 11.147C1.13035 11.2874 0.951639 11.3576 0.747398 11.3576C0.332535 11.3576 0.00702667 11.0385 0.00702667 10.6172C0.00702667 10.413 0.0899987 10.2279 0.230414 10.0875L4.71732 5.70907L0.230414 1.33067C0.0899987 1.18387 0.00702667 0.998777 0.00702667 0.794536C0.00702667 0.379673 0.332535 0.0605469 0.747398 0.0605469C0.951639 0.0605469 1.13035 0.130755 1.26438 0.27117L6.24275 5.14103C6.41507 5.30698 6.49166 5.49207 6.49805 5.70907Z" fill="#B4B4B4"/>
</svg>
