<svg width="7" height="12" viewBox="0 0 7 12" fill="none" xmlns="http://www.w3.org/2000/svg">
<path d="M0.0805664 5.70907C0.0805664 5.92608 0.163539 6.11117 0.335867 6.27712L5.31423 11.147C5.44826 11.2874 5.62697 11.3576 5.83121 11.3576C6.24608 11.3576 6.57159 11.0385 6.57159 10.6172C6.57159 10.413 6.48861 10.2279 6.3482 10.0875L1.86129 5.70907L6.3482 1.33067C6.48861 1.18387 6.57159 0.998777 6.57159 0.794536C6.57159 0.379673 6.24608 0.0605469 5.83121 0.0605469C5.62697 0.0605469 5.44826 0.130755 5.31423 0.27117L0.335867 5.14103C0.163539 5.30698 0.0869489 5.49207 0.0805664 5.70907Z" fill="#B4B4B4"/>
</svg>
