<svg width="29" height="29" viewBox="0 0 29 29" fill="none" xmlns="http://www.w3.org/2000/svg">
<circle cx="14.1035" cy="14.1035" r="14.1035" fill="url(#paint0_linear_1852_43263)"/>
<path d="M7.05176 10.3066H20.0704V13.5613C20.0704 17.1563 17.1561 20.0706 13.5611 20.0706C9.96608 20.0706 7.05176 17.1563 7.05176 13.5613V10.3066Z" fill="url(#paint1_linear_1852_43263)"/>
<ellipse cx="13.5611" cy="10.307" rx="6.50932" ry="1.62733" fill="white"/>
<path d="M19.5275 10.3056C19.5275 11.0545 16.856 11.6617 13.5606 11.6617C10.2652 11.6617 7.59375 11.0545 7.59375 10.3056C7.59375 9.55663 10.2652 9.2207 13.5606 9.2207C16.856 9.2207 19.5275 9.55663 19.5275 10.3056Z" fill="url(#paint2_linear_1852_43263)"/>
<path d="M19.5275 10.3349C19.5275 11.3677 16.856 12.2049 13.5606 12.2049C10.2652 12.2049 7.59375 11.3677 7.59375 10.3349C7.59375 9.86714 7.82422 11.2697 11.1196 11.2697C14.415 11.2697 19.5275 9.30206 19.5275 10.3349Z" fill="url(#paint3_linear_1852_43263)"/>
<path d="M19.1614 12.2886C19.1614 12.2886 19.7903 11.669 20.3581 11.4691C21.0761 11.2163 21.7129 11.5959 22.0335 12.2887C22.446 13.1801 22.2191 14.368 21.5548 15.0696C20.5975 16.0807 18.4434 16.2726 18.4434 16.2726" stroke="url(#paint4_linear_1852_43263)" stroke-width="1.62733"/>
<defs>
<linearGradient id="paint0_linear_1852_43263" x1="14.1035" y1="0" x2="14.1035" y2="28.207" gradientUnits="userSpaceOnUse">
<stop stop-color="#237DF9"/>
<stop offset="1" stop-color="#0000FB"/>
</linearGradient>
<linearGradient id="paint1_linear_1852_43263" x1="13.8323" y1="12.7476" x2="16.0021" y2="19.2569" gradientUnits="userSpaceOnUse">
<stop stop-color="white"/>
<stop offset="1" stop-color="#A5C2FF"/>
</linearGradient>
<linearGradient id="paint2_linear_1852_43263" x1="13.5606" y1="8.94948" x2="13.5606" y2="11.6617" gradientUnits="userSpaceOnUse">
<stop stop-color="white"/>
<stop offset="1" stop-color="#DDDDDD"/>
</linearGradient>
<linearGradient id="paint3_linear_1852_43263" x1="13.5606" y1="8.4646" x2="13.5606" y2="12.2047" gradientUnits="userSpaceOnUse">
<stop stop-color="#9E4700"/>
<stop offset="1" stop-color="#432600"/>
</linearGradient>
<linearGradient id="paint4_linear_1852_43263" x1="20.3419" y1="11.3906" x2="20.3419" y2="16.2726" gradientUnits="userSpaceOnUse">
<stop stop-color="white"/>
<stop offset="1" stop-color="#B7CEFF"/>
</linearGradient>
</defs>
</svg>
