<svg width="59" height="66" viewBox="0 0 59 66" fill="none" xmlns="http://www.w3.org/2000/svg">
<g opacity="0.5">
<circle cx="29.5" cy="29.5" r="29.5" fill="url(#paint0_linear_2824_28660)"/>
<mask id="mask0_2824_28660" style="mask-type:alpha" maskUnits="userSpaceOnUse" x="0" y="0" width="59" height="59">
<circle cx="29.5" cy="29.5" r="29.5" fill="url(#paint1_linear_2824_28660)"/>
</mask>
<g mask="url(#mask0_2824_28660)">
<circle cx="12.8139" cy="30.9682" r="17.3529" fill="url(#paint2_linear_2824_28660)"/>
<ellipse cx="7.61029" cy="30.101" rx="1.73529" ry="2.60294" fill="url(#paint3_linear_2824_28660)"/>
<ellipse cx="18.0195" cy="30.101" rx="1.73529" ry="2.60294" fill="url(#paint4_linear_2824_28660)"/>
</g>
<mask id="mask1_2824_28660" style="mask-type:alpha" maskUnits="userSpaceOnUse" x="0" y="0" width="59" height="59">
<circle cx="29.5" cy="29.5" r="29.5" fill="url(#paint5_linear_2824_28660)"/>
</mask>
<g mask="url(#mask1_2824_28660)">
<circle cx="46.8532" cy="35.5075" r="15.0837" fill="url(#paint6_linear_2824_28660)"/>
<ellipse cx="42.3297" cy="34.7528" rx="1.50837" ry="2.26256" fill="url(#paint7_linear_2824_28660)"/>
<ellipse cx="51.3795" cy="34.7528" rx="1.50837" ry="2.26256" fill="url(#paint8_linear_2824_28660)"/>
</g>
<path d="M33.0751 65.1637C32.4377 65.7045 31.4576 65.271 31.4288 64.4356L31 52L47.9998 52.5009L33.0751 65.1637Z" fill="#0059DF"/>
</g>
<defs>
<linearGradient id="paint0_linear_2824_28660" x1="29.5" y1="0" x2="29.5" y2="59" gradientUnits="userSpaceOnUse">
<stop stop-color="#237DF9"/>
<stop offset="1" stop-color="#0059DF"/>
</linearGradient>
<linearGradient id="paint1_linear_2824_28660" x1="29.5" y1="0" x2="29.5" y2="59" gradientUnits="userSpaceOnUse">
<stop stop-color="#237DF9"/>
<stop offset="1" stop-color="#0000FB"/>
</linearGradient>
<linearGradient id="paint2_linear_2824_28660" x1="12.8139" y1="13.6152" x2="12.8139" y2="48.3211" gradientUnits="userSpaceOnUse">
<stop stop-color="#F5F9FF"/>
<stop offset="1" stop-color="#237DF9"/>
</linearGradient>
<linearGradient id="paint3_linear_2824_28660" x1="7.61029" y1="27.498" x2="7.61029" y2="32.7039" gradientUnits="userSpaceOnUse">
<stop stop-color="#237DF9"/>
<stop offset="1" stop-color="#0059DF"/>
</linearGradient>
<linearGradient id="paint4_linear_2824_28660" x1="18.0195" y1="27.498" x2="18.0195" y2="32.7039" gradientUnits="userSpaceOnUse">
<stop stop-color="#237DF9"/>
<stop offset="1" stop-color="#0059DF"/>
</linearGradient>
<linearGradient id="paint5_linear_2824_28660" x1="29.5" y1="0" x2="29.5" y2="59" gradientUnits="userSpaceOnUse">
<stop stop-color="#237DF9"/>
<stop offset="1" stop-color="#0000FB"/>
</linearGradient>
<linearGradient id="paint6_linear_2824_28660" x1="46.8532" y1="20.4238" x2="46.8532" y2="50.5912" gradientUnits="userSpaceOnUse">
<stop stop-color="#F5F9FF"/>
<stop offset="1" stop-color="#237DF9"/>
</linearGradient>
<linearGradient id="paint7_linear_2824_28660" x1="42.3297" y1="32.4902" x2="42.3297" y2="37.0153" gradientUnits="userSpaceOnUse">
<stop stop-color="#237DF9"/>
<stop offset="1" stop-color="#0059DF"/>
</linearGradient>
<linearGradient id="paint8_linear_2824_28660" x1="51.3795" y1="32.4902" x2="51.3795" y2="37.0153" gradientUnits="userSpaceOnUse">
<stop stop-color="#237DF9"/>
<stop offset="1" stop-color="#0059DF"/>
</linearGradient>
</defs>
</svg>
