<svg width="18" height="19" viewBox="0 0 18 19" fill="none" xmlns="http://www.w3.org/2000/svg">
<path d="M9 1.70898C6.0975 1.70898 3.75 4.05648 3.75 6.95898C3.75 10.8965 9 16.709 9 16.709C9 16.709 14.25 10.8965 14.25 6.95898C14.25 4.05648 11.9025 1.70898 9 1.70898ZM9 8.83398C8.50272 8.83398 8.02581 8.63644 7.67417 8.28481C7.32254 7.93318 7.125 7.45627 7.125 6.95898C7.125 6.4617 7.32254 5.98479 7.67417 5.63316C8.02581 5.28153 8.50272 5.08398 9 5.08398C9.49728 5.08398 9.97419 5.28153 10.3258 5.63316C10.6775 5.98479 10.875 6.4617 10.875 6.95898C10.875 7.45627 10.6775 7.93318 10.3258 8.28481C9.97419 8.63644 9.49728 8.83398 9 8.83398Z" fill="#5C5C5C"/>
</svg>
