<svg width="40" height="41" viewBox="0 0 40 41" fill="none" xmlns="http://www.w3.org/2000/svg">
<circle cx="20" cy="20.209" r="20" fill="#2167FF"/>
<path d="M23.1876 19.7178L12.876 18.679L12.875 12.1125C12.8751 11.9371 12.92 11.7647 13.0055 11.6116C13.091 11.4585 13.2141 11.3298 13.3633 11.2376C13.5125 11.1454 13.6827 11.0929 13.8579 11.085C14.0331 11.0771 14.2074 11.1141 14.3642 11.1925L29.5557 18.7882C29.7264 18.8738 29.8699 19.0052 29.9702 19.1677C30.0704 19.3302 30.1235 19.5173 30.1235 19.7082C30.1235 19.8992 30.0704 20.0863 29.9702 20.2488C29.8699 20.4113 29.7264 20.5426 29.5557 20.6282L14.3662 28.224C14.2093 28.3024 14.035 28.3394 13.8598 28.3315C13.6847 28.3236 13.5144 28.2711 13.3652 28.1789C13.216 28.0867 13.0929 27.958 13.0074 27.8049C12.922 27.6518 12.877 27.4794 12.8769 27.304V20.7375L23.1876 19.7178Z" fill="white"/>
</svg>
