<svg width="21" height="22" viewBox="0 0 21 22" fill="none" xmlns="http://www.w3.org/2000/svg">
<path d="M14.8488 0.125141C15.4251 0.131105 15.9846 0.323124 16.4425 0.672993C16.8431 0.979135 17.1472 1.39177 17.3224 1.86147L17.3898 2.06655L17.4084 2.16616C17.4253 2.3978 17.2772 2.61783 17.0451 2.68374C16.7796 2.75876 16.5032 2.60354 16.4279 2.33803C16.3295 1.9916 16.1213 1.6866 15.8351 1.46791C15.5488 1.24917 15.1993 1.12892 14.839 1.12514L2.86148 0.999165C2.41902 0.994598 1.99222 1.16629 1.67593 1.47573C1.35967 1.78543 1.17974 2.20888 1.17496 2.65151L1.00015 19.1378C0.997943 19.3567 1.03867 19.5743 1.12027 19.7775C1.202 19.9807 1.32351 20.1659 1.47671 20.3224C1.63014 20.4791 1.8131 20.6046 2.0148 20.6906C2.21642 20.7765 2.43333 20.8221 2.65249 20.8244L14.63 20.9494C15.0727 20.954 15.5002 20.7834 15.8166 20.4738C16.133 20.164 16.3137 19.7407 16.3185 19.298L16.3468 16.5656L16.3585 16.465C16.4076 16.2377 16.6111 16.0689 16.8527 16.0714C17.0942 16.0741 17.2939 16.2474 17.338 16.4757L17.3468 16.5763L17.3175 19.3087C17.3099 20.0166 17.0216 20.6924 16.5158 21.1876C16.0099 21.6828 15.3281 21.9568 14.6203 21.9494L2.64175 21.8234C2.29149 21.8197 1.94545 21.7478 1.6232 21.6105C1.30063 21.4729 1.00723 21.2731 0.76187 21.0226C0.516702 20.7722 0.32327 20.4757 0.192534 20.1505C0.0618024 19.8252 -0.00357535 19.4767 0.000150758 19.1261L0.173979 2.64077C0.181623 1.9329 0.470853 1.2561 0.976713 0.760883C1.4824 0.266087 2.16379 -0.00712471 2.87124 0.000141302L14.8488 0.125141ZM9.01578 4.08706C11.1485 4.08721 13.0391 5.12061 14.2169 6.71303C15.112 6.0236 16.3071 5.74477 17.4826 6.05971C19.4854 6.59652 20.6735 8.65549 20.1369 10.6583C19.9138 11.4903 19.4273 12.1806 18.7921 12.6662C18.818 12.6937 18.8418 12.7239 18.8615 12.758L19.6291 14.0871L19.671 14.1789C19.7444 14.3994 19.6546 14.6489 19.4455 14.7697C19.2363 14.8902 18.9756 14.8429 18.8214 14.6691L18.7628 14.5861L17.9962 13.258C17.9765 13.2237 17.9613 13.1878 17.9503 13.1515C17.2122 13.4588 16.3713 13.5355 15.5392 13.3126C15.3367 13.2584 15.1431 13.1874 14.9582 13.1037C13.9687 15.4069 11.6814 17.0205 9.01578 17.0206C5.4443 17.0206 2.549 14.1253 2.54898 10.5539C2.54907 6.98244 5.44434 4.08706 9.01578 4.08706ZM9.01578 5.08706C5.99663 5.08706 3.54907 7.53473 3.54898 10.5539C3.549 13.573 5.99659 16.0206 9.01578 16.0206C11.3253 16.0205 13.298 14.5874 14.0988 12.5626C13.0162 11.6539 12.4942 10.1703 12.8839 8.71499C13.0116 8.23851 13.2253 7.80775 13.5041 7.43569C12.5166 6.01695 10.8753 5.08721 9.01578 5.08706ZM17.2238 7.02553C16.3269 6.78522 15.4154 7.01759 14.7511 7.5685C15.2171 8.46179 15.4825 9.47664 15.4826 10.5539C15.4826 11.1049 15.4121 11.6398 15.2824 12.1505C15.4445 12.2311 15.6164 12.2982 15.798 12.3468C17.2672 12.7403 18.7771 11.8686 19.171 10.3996C19.5648 8.93017 18.6931 7.4194 17.2238 7.02553ZM6.84585 10.0109C7.14528 10.0111 7.38775 10.497 7.38785 11.0958C7.38785 11.6949 7.14533 12.1806 6.84585 12.1808C6.54628 12.1808 6.30289 11.695 6.30289 11.0958C6.30298 10.4968 6.54633 10.0109 6.84585 10.0109ZM11.1847 10.0109C11.4842 10.0109 11.7276 10.4968 11.7277 11.0958C11.7277 11.695 11.4843 12.1808 11.1847 12.1808C10.8853 12.1805 10.6427 11.6948 10.6427 11.0958C10.6428 10.497 10.8853 10.0112 11.1847 10.0109ZM14.0558 8.43569C13.9702 8.60406 13.9006 8.78405 13.8498 8.97377C13.6079 9.87719 13.8457 10.7949 14.4054 11.4601C14.4546 11.1653 14.4826 10.8626 14.4826 10.5539C14.4825 9.80269 14.33 9.08719 14.0558 8.43569Z" fill="#5C5C5C"/>
</svg>
