<svg width="24" height="24" viewBox="0 0 24 24" fill="none" xmlns="http://www.w3.org/2000/svg">
<path d="M21 8.77807C20.1167 4.35012 16.0144 1 11.0889 1C5.51556 1 1 5.28349 1 10.567C1 13.106 2.04222 15.4116 3.74333 17.1228C4.11667 17.5006 4.36667 18.0151 4.26556 18.5451C4.10129 19.407 3.72475 20.2143 3.17 20.8941C4.62384 21.1575 6.12403 20.9263 7.43111 20.2374C7.88889 19.9951 8.11889 19.8751 8.28 19.8507C8.39333 19.8329 8.54111 19.8496 8.77778 19.8896" stroke="#5C5C5C" stroke-linecap="round" stroke-linejoin="round"/>
<path d="M11 16.7403C11 19.9093 13.6869 22.4795 17 22.4795C17.3905 22.4795 17.7775 22.4438 18.1607 22.3725C18.4367 22.3213 18.5742 22.2951 18.6702 22.3093C18.7662 22.3245 18.9025 22.3965 19.1753 22.5416C19.9455 22.9518 20.8444 23.0969 21.7095 22.9354C21.3784 22.5275 21.1542 22.0434 21.0571 21.5271C20.9971 21.2086 21.1455 20.8998 21.3691 20.674C22.4109 19.6296 22.9972 18.2154 23 16.7403C23 13.5701 20.3131 11 17 11C13.6869 11 11 13.5701 11 16.7403Z" stroke="#5C5C5C" stroke-linecap="round" stroke-linejoin="round"/>
</svg>
