<svg width="29" height="29" viewBox="0 0 29 29" fill="none" xmlns="http://www.w3.org/2000/svg">
<circle cx="22.0518" cy="7.55176" r="2.21875" stroke="#368BFF"/>
<path d="M16.9165 16.6143V15.083C16.9165 13.4262 18.2596 12.083 19.9165 12.083H24.7915C26.4484 12.083 27.7915 13.4262 27.7915 15.083V16.6143" stroke="#368BFF"/>
<circle cx="12" cy="6.5" r="4" fill="#2167FF" stroke="#2167FF"/>
<path d="M7.5 13.5H16.5C18.9853 13.5 21 15.5147 21 18V21C21 21.2761 20.7761 21.5 20.5 21.5H3.5C3.22386 21.5 3 21.2761 3 21V18C3 15.5147 5.01472 13.5 7.5 13.5Z" fill="#2167FF" stroke="#2167FF"/>
<path d="M25.9165 17V21.8333" stroke="#368BFF"/>
<path d="M28.3335 19.417H23.5002" stroke="#368BFF"/>
</svg>
