<svg width="26" height="20" viewBox="0 0 26 20" fill="none" xmlns="http://www.w3.org/2000/svg">
<circle cx="19.5518" cy="5.55176" r="2.21875" stroke="#5C5C5C"/>
<path d="M14 11.5V11.5C14.2469 10.6599 15.0178 10.083 15.8934 10.083H22.2915C23.9484 10.083 25.2915 11.4262 25.2915 13.083V14.6143" stroke="#5C5C5C"/>
<circle cx="9.5" cy="4.5" r="4" stroke="#5C5C5C"/>
<path d="M5 11.5H14C16.4853 11.5 18.5 13.5147 18.5 16V19C18.5 19.2761 18.2761 19.5 18 19.5H1C0.723858 19.5 0.5 19.2761 0.5 19V16C0.5 13.5147 2.51472 11.5 5 11.5Z" stroke="#5C5C5C"/>
<path d="M23.4165 15V19.8333" stroke="#5C5C5C"/>
<path d="M25.8335 17.417H21.0002" stroke="#5C5C5C"/>
</svg>
