<svg width="109" height="99" viewBox="0 0 109 99" fill="none" xmlns="http://www.w3.org/2000/svg">
<g filter="url(#filter0_i_2047_25165)">
<path d="M53.7311 98.4103L3.7132 73.4013C2.21476 72.6521 2.24635 70.5029 3.76617 69.7981L57.2668 44.9862C57.7825 44.747 58.3757 44.7386 58.8979 44.9631L105.401 64.9477C106.901 65.5923 107.038 67.6657 105.636 68.5025L55.6506 98.3387C55.0648 98.6884 54.3413 98.7153 53.7311 98.4103Z" fill="#F7F7F7" fill-opacity="0.5"/>
</g>
<path d="M56.7683 17.6758L77.8108 8.83789V69.8611L56.7683 81.6449V17.6758Z" fill="url(#paint0_linear_2047_25165)"/>
<path d="M60.135 24.6449L63.4345 23.1475V27.2874V31.1436L60.135 32.827V24.6449Z" fill="url(#paint1_linear_2047_25165)"/>
<path d="M66.0269 21.6986L69.3263 20.2012V24.3412V28.1973L66.0269 29.8807V21.6986Z" fill="url(#paint2_linear_2047_25165)"/>
<path d="M71.9187 19.1732L75.2182 17.6758V21.8158V25.6719L71.9187 27.3553V19.1732Z" fill="url(#paint3_linear_2047_25165)"/>
<path d="M60.135 37.2709L63.4345 35.7734V39.9134V43.7696L60.135 45.453V37.2709Z" fill="url(#paint4_linear_2047_25165)"/>
<path d="M66.0269 34.3246L69.3263 32.8271V36.9671V40.8233L66.0269 42.5067V34.3246Z" fill="url(#paint5_linear_2047_25165)"/>
<path d="M71.9187 31.7992L75.2182 30.3018V34.4417V38.2979L71.9187 39.9813V31.7992Z" fill="url(#paint6_linear_2047_25165)"/>
<path d="M60.135 49.8959L63.4345 48.3984V52.5384V56.3946L60.135 58.078V49.8959Z" fill="url(#paint7_linear_2047_25165)"/>
<path d="M66.0269 46.9496L69.3263 45.4521V49.5921V53.4483L66.0269 55.1317V46.9496Z" fill="url(#paint8_linear_2047_25165)"/>
<path d="M71.9187 44.4242L75.2182 42.9268V47.0667V50.9229L71.9187 52.6063V44.4242Z" fill="url(#paint9_linear_2047_25165)"/>
<path d="M60.135 62.5219L63.4345 61.0244V65.1644V69.0206L60.135 70.704V62.5219Z" fill="url(#paint10_linear_2047_25165)"/>
<path d="M66.0269 59.5756L69.3263 58.0781V62.2181V66.0743L66.0269 67.7577V59.5756Z" fill="url(#paint11_linear_2047_25165)"/>
<path d="M71.9187 57.0502L75.2182 55.5527V59.6927V63.5489L71.9187 65.2323V57.0502Z" fill="url(#paint12_linear_2047_25165)"/>
<path d="M56.7683 17.6758L35.7258 9.25879V71.4398L56.7683 81.6449V17.6758Z" fill="url(#paint13_linear_2047_25165)"/>
<path d="M56.7683 17.6757L35.7258 9.25869L56.3475 0L77.8108 8.83784L56.7683 17.6757Z" fill="url(#paint14_linear_2047_25165)"/>
<path d="M53.334 62.5215V70.7031L50.0352 69.0195V61.0234L53.334 62.5215ZM47.4424 59.5752V67.7568L44.1426 66.0742V58.0781L47.4424 59.5752ZM41.5508 57.0498V65.2324L38.251 63.5488V55.5527L41.5508 57.0498ZM53.334 49.8955V58.0781L50.0352 56.3945V48.3984L53.334 49.8955ZM47.4424 46.9492V55.1318L44.1426 53.4482V45.4521L47.4424 46.9492ZM41.5508 44.4248V52.6064L38.251 50.9229V42.9268L41.5508 44.4248ZM53.334 37.2705V45.4521L50.0352 43.7686V35.7725L53.334 37.2705ZM47.4424 34.3242V42.5059L44.1426 40.8232V32.8271L47.4424 34.3242ZM41.5508 31.7988V39.9814L38.251 38.2979V30.3018L41.5508 31.7988ZM53.334 24.6445V32.8271L50.0352 31.1436V23.1475L53.334 24.6445ZM47.4424 21.6982V29.8809L44.1426 28.1973V20.2012L47.4424 21.6982ZM41.5508 19.1738V27.3555L38.251 25.6719V17.6758L41.5508 19.1738Z" fill="url(#paint15_linear_2047_25165)"/>
<path d="M24.3281 47.8358L33.6562 43.918V70.9695L24.3281 76.1933V47.8358Z" fill="url(#paint16_linear_2047_25165)"/>
<path d="M24.3281 47.8357L15 44.1045V71.6693L24.3281 76.1932V47.8357Z" fill="url(#paint17_linear_2047_25165)"/>
<path d="M24.3281 47.8356L15 44.1044L24.1416 40L33.6562 43.9178L24.3281 47.8356Z" fill="url(#paint18_linear_2047_25165)"/>
<defs>
<filter id="filter0_i_2047_25165" x="2.60767" y="43.8008" width="104.003" height="54.8203" filterUnits="userSpaceOnUse" color-interpolation-filters="sRGB">
<feFlood flood-opacity="0" result="BackgroundImageFix"/>
<feBlend mode="normal" in="SourceGraphic" in2="BackgroundImageFix" result="shape"/>
<feColorMatrix in="SourceAlpha" type="matrix" values="0 0 0 0 0 0 0 0 0 0 0 0 0 0 0 0 0 0 127 0" result="hardAlpha"/>
<feOffset dy="-1"/>
<feGaussianBlur stdDeviation="2"/>
<feComposite in2="hardAlpha" operator="arithmetic" k2="-1" k3="1"/>
<feColorMatrix type="matrix" values="0 0 0 0 0.81162 0 0 0 0 0.843261 0 0 0 0 0.911538 0 0 0 0.45 0"/>
<feBlend mode="normal" in2="shape" result="effect1_innerShadow_2047_25165"/>
</filter>
<linearGradient id="paint0_linear_2047_25165" x1="76.1274" y1="18.5174" x2="76.1274" y2="81.6448" gradientUnits="userSpaceOnUse">
<stop stop-color="#0082FF"/>
<stop offset="1" stop-color="#6CB1FF"/>
</linearGradient>
<linearGradient id="paint1_linear_2047_25165" x1="63.2325" y1="24.7526" x2="63.2325" y2="32.827" gradientUnits="userSpaceOnUse">
<stop stop-color="#CDE8F9"/>
<stop offset="1" stop-color="#6CB1FF"/>
</linearGradient>
<linearGradient id="paint2_linear_2047_25165" x1="69.1243" y1="21.8063" x2="69.1243" y2="29.8807" gradientUnits="userSpaceOnUse">
<stop stop-color="#CDE8F9"/>
<stop offset="1" stop-color="#6CB1FF"/>
</linearGradient>
<linearGradient id="paint3_linear_2047_25165" x1="75.0162" y1="19.2809" x2="75.0162" y2="27.3553" gradientUnits="userSpaceOnUse">
<stop stop-color="#CDE8F9"/>
<stop offset="1" stop-color="#6CB1FF"/>
</linearGradient>
<linearGradient id="paint4_linear_2047_25165" x1="63.2325" y1="37.3785" x2="63.2325" y2="45.453" gradientUnits="userSpaceOnUse">
<stop stop-color="#CDE8F9"/>
<stop offset="1" stop-color="#6CB1FF"/>
</linearGradient>
<linearGradient id="paint5_linear_2047_25165" x1="69.1243" y1="34.4322" x2="69.1243" y2="42.5067" gradientUnits="userSpaceOnUse">
<stop stop-color="#CDE8F9"/>
<stop offset="1" stop-color="#6CB1FF"/>
</linearGradient>
<linearGradient id="paint6_linear_2047_25165" x1="75.0162" y1="31.9069" x2="75.0162" y2="39.9813" gradientUnits="userSpaceOnUse">
<stop stop-color="#CDE8F9"/>
<stop offset="1" stop-color="#6CB1FF"/>
</linearGradient>
<linearGradient id="paint7_linear_2047_25165" x1="63.2325" y1="50.0035" x2="63.2325" y2="58.078" gradientUnits="userSpaceOnUse">
<stop stop-color="#CDE8F9"/>
<stop offset="1" stop-color="#6CB1FF"/>
</linearGradient>
<linearGradient id="paint8_linear_2047_25165" x1="69.1243" y1="47.0572" x2="69.1243" y2="55.1317" gradientUnits="userSpaceOnUse">
<stop stop-color="#CDE8F9"/>
<stop offset="1" stop-color="#6CB1FF"/>
</linearGradient>
<linearGradient id="paint9_linear_2047_25165" x1="75.0162" y1="44.5319" x2="75.0162" y2="52.6063" gradientUnits="userSpaceOnUse">
<stop stop-color="#CDE8F9"/>
<stop offset="1" stop-color="#6CB1FF"/>
</linearGradient>
<linearGradient id="paint10_linear_2047_25165" x1="63.2325" y1="62.6295" x2="63.2325" y2="70.7039" gradientUnits="userSpaceOnUse">
<stop stop-color="#CDE8F9"/>
<stop offset="1" stop-color="#6CB1FF"/>
</linearGradient>
<linearGradient id="paint11_linear_2047_25165" x1="69.1243" y1="59.6832" x2="69.1243" y2="67.7577" gradientUnits="userSpaceOnUse">
<stop stop-color="#CDE8F9"/>
<stop offset="1" stop-color="#6CB1FF"/>
</linearGradient>
<linearGradient id="paint12_linear_2047_25165" x1="75.0162" y1="57.1578" x2="75.0162" y2="65.2323" gradientUnits="userSpaceOnUse">
<stop stop-color="#CDE8F9"/>
<stop offset="1" stop-color="#6CB1FF"/>
</linearGradient>
<linearGradient id="paint13_linear_2047_25165" x1="37.4092" y1="18.5175" x2="37.4092" y2="81.6449" gradientUnits="userSpaceOnUse">
<stop stop-color="#5BA9FF"/>
<stop offset="1" stop-color="#AED6FF"/>
</linearGradient>
<linearGradient id="paint14_linear_2047_25165" x1="56.7683" y1="-2.94595" x2="56.7683" y2="18.5174" gradientUnits="userSpaceOnUse">
<stop stop-color="#C2E4FF"/>
<stop offset="1" stop-color="#F1FFFF"/>
</linearGradient>
<linearGradient id="paint15_linear_2047_25165" x1="45.7925" y1="17.6758" x2="45.7925" y2="70.7031" gradientUnits="userSpaceOnUse">
<stop stop-color="white"/>
<stop offset="1" stop-color="#BBDCFF"/>
</linearGradient>
<linearGradient id="paint16_linear_2047_25165" x1="32.91" y1="48.2089" x2="32.91" y2="76.1932" gradientUnits="userSpaceOnUse">
<stop stop-color="#BBC9E6"/>
<stop offset="1" stop-color="#EAEBED"/>
</linearGradient>
<linearGradient id="paint17_linear_2047_25165" x1="15.7463" y1="48.2089" x2="15.7463" y2="76.1932" gradientUnits="userSpaceOnUse">
<stop offset="1" stop-color="#E6EFF7"/>
</linearGradient>
<linearGradient id="paint18_linear_2047_25165" x1="24.3281" y1="38.6941" x2="24.3281" y2="48.2087" gradientUnits="userSpaceOnUse">
<stop stop-color="#D0D9E9"/>
<stop offset="1" stop-color="#FDFDFD"/>
</linearGradient>
</defs>
</svg>
