<svg width="52" height="90" viewBox="0 0 52 90" fill="none" xmlns="http://www.w3.org/2000/svg">
<path d="M12.7625 45.7168H37.8618L38.2873 55.0759H12.7625V45.7168Z" fill="#79AEF3"/>
<g filter="url(#filter0_i_2047_16919)">
<path d="M0 58.4436C0 54.6684 2.99368 51.5733 6.7668 51.4475L25.5248 50.8223L45.1261 51.4546C48.9023 51.5764 51.9004 54.6728 51.9004 58.4509V81.2586C51.9004 85.1246 48.7664 88.2586 44.9004 88.2586H7.00001C3.13401 88.2586 0 85.1246 0 81.2586V58.4436Z" fill="url(#paint0_linear_2047_16919)"/>
</g>
<path d="M29.7789 75.3619L27.5339 62.4529C27.3911 61.6317 26.6783 61.0322 25.8448 61.0322C25.001 61.0322 24.2826 61.6463 24.1513 62.4798L22.1215 75.3619L20.3391 87.2381C20.1576 88.4473 21.0941 89.5349 22.3169 89.5349H29.5834C30.8062 89.5349 31.7427 88.4473 31.5613 87.2381L29.7789 75.3619Z" fill="url(#paint1_linear_2047_16919)"/>
<path d="M26.094 53.7998H25.4376C24.7047 53.7998 24.0305 54.2007 23.6805 54.8446L22.4836 57.0463C22.1443 57.6704 22.1615 58.4276 22.5288 59.0356L23.665 60.9167C24.0271 61.5163 24.6765 61.8827 25.3769 61.8827H26.156C26.8247 61.8827 27.4492 61.5485 27.8201 60.9921L29.0768 59.107C29.5055 58.4639 29.5253 57.6314 29.1277 56.9686L27.809 54.7708C27.4475 54.1684 26.7965 53.7998 26.094 53.7998Z" fill="url(#paint2_linear_2047_16919)"/>
<g filter="url(#filter1_d_2047_16919)">
<path d="M12.4744 45.7154L25.2389 53.7976L23.1033 57.0926C21.4765 59.6024 18.0249 60.1322 15.7204 58.2257L8.54821 52.2922C8.13029 51.9465 8.06418 51.3306 8.3992 50.904L12.4744 45.7154Z" fill="url(#paint3_linear_2047_16919)"/>
</g>
<g filter="url(#filter2_d_2047_16919)">
<path d="M25.9503 53.7998L38.0014 45.7151L42.792 50.8747C43.1902 51.3036 43.1367 51.9813 42.676 52.3422L35.069 58.3035C32.6488 60.2001 29.1064 59.4834 27.6137 56.7953L25.9503 53.7998Z" fill="url(#paint4_linear_2047_16919)"/>
</g>
<path fill-rule="evenodd" clip-rule="evenodd" d="M25.4286 42.8571C37.2633 42.8571 46.8571 33.2633 46.8571 21.4286L46.8561 21.205C40.7588 21.0407 35.2092 18.6726 30.9786 14.8736C26.5912 18.8134 20.7853 21.2143 14.4211 21.2143C10.7568 21.2143 7.27268 20.4175 4.13763 18.9865C4.04671 19.7879 4 20.6028 4 21.4286C4 33.2633 13.5939 42.8571 25.4286 42.8571ZM32.9838 9.30279C36.2529 12.994 40.8961 15.4283 46.112 15.8057C43.6418 6.69852 35.3175 0 25.4286 0C16.3314 0 8.55823 5.66888 5.44895 13.6668C8.1303 15.0655 11.1796 15.8571 14.4211 15.8571C20.2125 15.8571 25.4095 13.3269 28.9733 9.30284C29.4817 8.72877 30.2118 8.40011 30.9786 8.40011C31.7454 8.40011 32.4754 8.72877 32.9838 9.30279Z" fill="url(#paint5_linear_2047_16919)"/>
<ellipse cx="17.7812" cy="27.5" rx="1.78125" ry="3.5" fill="url(#paint6_linear_2047_16919)"/>
<ellipse cx="31.7812" cy="27.5" rx="1.78125" ry="3.5" fill="url(#paint7_linear_2047_16919)"/>
<defs>
<filter id="filter0_i_2047_16919" x="0" y="49.8223" width="51.9004" height="38.4365" filterUnits="userSpaceOnUse" color-interpolation-filters="sRGB">
<feFlood flood-opacity="0" result="BackgroundImageFix"/>
<feBlend mode="normal" in="SourceGraphic" in2="BackgroundImageFix" result="shape"/>
<feColorMatrix in="SourceAlpha" type="matrix" values="0 0 0 0 0 0 0 0 0 0 0 0 0 0 0 0 0 0 127 0" result="hardAlpha"/>
<feOffset dy="-1"/>
<feGaussianBlur stdDeviation="2"/>
<feComposite in2="hardAlpha" operator="arithmetic" k2="-1" k3="1"/>
<feColorMatrix type="matrix" values="0 0 0 0 0.173313 0 0 0 0 0.400995 0 0 0 0 0.892308 0 0 0 1 0"/>
<feBlend mode="normal" in2="shape" result="effect1_innerShadow_2047_16919"/>
</filter>
<filter id="filter1_d_2047_16919" x="3.38555" y="43.9158" width="26.6535" height="23.2582" filterUnits="userSpaceOnUse" color-interpolation-filters="sRGB">
<feFlood flood-opacity="0" result="BackgroundImageFix"/>
<feColorMatrix in="SourceAlpha" type="matrix" values="0 0 0 0 0 0 0 0 0 0 0 0 0 0 0 0 0 0 127 0" result="hardAlpha"/>
<feOffset dy="3"/>
<feGaussianBlur stdDeviation="2.4"/>
<feComposite in2="hardAlpha" operator="out"/>
<feColorMatrix type="matrix" values="0 0 0 0 0.0980767 0 0 0 0 0.428782 0 0 0 0 1 0 0 0 1 0"/>
<feBlend mode="normal" in2="BackgroundImageFix" result="effect1_dropShadow_2047_16919"/>
<feBlend mode="normal" in="SourceGraphic" in2="effect1_dropShadow_2047_16919" result="shape"/>
</filter>
<filter id="filter2_d_2047_16919" x="21.1502" y="43.9148" width="26.7091" height="23.2543" filterUnits="userSpaceOnUse" color-interpolation-filters="sRGB">
<feFlood flood-opacity="0" result="BackgroundImageFix"/>
<feColorMatrix in="SourceAlpha" type="matrix" values="0 0 0 0 0 0 0 0 0 0 0 0 0 0 0 0 0 0 127 0" result="hardAlpha"/>
<feOffset dy="3"/>
<feGaussianBlur stdDeviation="2.4"/>
<feComposite in2="hardAlpha" operator="out"/>
<feColorMatrix type="matrix" values="0 0 0 0 0.0980767 0 0 0 0 0.428782 0 0 0 0 1 0 0 0 1 0"/>
<feBlend mode="normal" in2="BackgroundImageFix" result="effect1_dropShadow_2047_16919"/>
<feBlend mode="normal" in="SourceGraphic" in2="effect1_dropShadow_2047_16919" result="shape"/>
</filter>
<linearGradient id="paint0_linear_2047_16919" x1="13.5015" y1="51.6731" x2="38.3989" y2="88.2586" gradientUnits="userSpaceOnUse">
<stop stop-color="#90C0FA"/>
<stop offset="1" stop-color="#5D8FF4"/>
</linearGradient>
<linearGradient id="paint1_linear_2047_16919" x1="25.9502" y1="61.0322" x2="25.9502" y2="88.2587" gradientUnits="userSpaceOnUse">
<stop stop-color="#113FBC"/>
<stop offset="1" stop-color="#121341"/>
</linearGradient>
<linearGradient id="paint2_linear_2047_16919" x1="25.8573" y1="53.7998" x2="25.8573" y2="61.8827" gradientUnits="userSpaceOnUse">
<stop stop-color="#113FBC"/>
<stop offset="1" stop-color="#121341"/>
</linearGradient>
<linearGradient id="paint3_linear_2047_16919" x1="18.5303" y1="49.6542" x2="13.4274" y2="57.4998" gradientUnits="userSpaceOnUse">
<stop stop-color="#C7E6FA"/>
<stop offset="1" stop-color="#94CFFF"/>
</linearGradient>
<linearGradient id="paint4_linear_2047_16919" x1="32.1147" y1="49.5286" x2="37.3334" y2="57.2976" gradientUnits="userSpaceOnUse">
<stop stop-color="#C7E6FA"/>
<stop offset="1" stop-color="#94CFFF"/>
</linearGradient>
<linearGradient id="paint5_linear_2047_16919" x1="26.5" y1="16" x2="26.5" y2="7.5" gradientUnits="userSpaceOnUse">
<stop stop-color="#D1EEFF"/>
<stop offset="1" stop-color="#001238"/>
</linearGradient>
<linearGradient id="paint6_linear_2047_16919" x1="17.7812" y1="24" x2="17.7812" y2="31" gradientUnits="userSpaceOnUse">
<stop stop-color="#011238"/>
<stop offset="1" stop-color="#4D6290"/>
</linearGradient>
<linearGradient id="paint7_linear_2047_16919" x1="31.7812" y1="24" x2="31.7812" y2="31" gradientUnits="userSpaceOnUse">
<stop stop-color="#011238"/>
<stop offset="1" stop-color="#4D6290"/>
</linearGradient>
</defs>
</svg>
