<svg width="136" height="62" viewBox="0 0 136 62" fill="none" xmlns="http://www.w3.org/2000/svg">
<path d="M92.999 0.4375C94.5287 1.23247 95.5513 2.39256 95.5615 3.97266C95.5681 5.02522 95.0067 5.91148 94.167 6.62793L94.1435 6.64746C93.3333 7.29551 92.4157 7.77101 91.4004 8.07422L91.3086 8.10254L91.2139 8.11035L90.5361 8.16992L90.5224 8.17188H90.5098C85.9282 8.44985 81.7208 8.81154 77.8877 9.25195L75.2978 19.8965C77.5287 19.5431 79.5457 19.2809 81.3467 19.1113C83.4933 18.9092 84.7723 18.7882 85.1846 18.748L85.1982 18.7471L87.4004 18.5635L87.6348 18.5449L87.8515 18.6367C89.4843 19.3361 90.6369 20.4497 90.6474 22.0879C90.6539 23.113 90.1396 24.0078 89.3506 24.7627C88.5743 25.5053 87.6778 26.0403 86.6689 26.3545L86.5947 26.377L86.5185 26.3877L85.6709 26.5068L85.6601 26.5078L85.6494 26.5098C83.949 26.7097 82.3591 26.8699 80.8808 26.9932C77.5022 27.3131 75.0065 27.5969 73.3799 27.8428L72.4521 31.6777C70.9903 38.7361 70.0137 43.3398 69.5224 45.4775L69.5244 45.4785C68.6373 49.3767 67.5768 52.5072 66.3242 54.832C65.0566 57.1848 63.3943 58.9507 61.3203 60.0684L61.3193 60.0674C59.3021 61.1737 56.7484 61.7449 53.7129 61.8379C51.7565 61.8978 50.0568 61.6717 48.6562 61.1094L48.6465 61.1045C47.3475 60.5651 46.2959 59.8595 45.5693 58.9502L45.5508 58.9258C44.9242 58.0865 44.5222 57.2016 44.4941 56.2891C44.4602 55.1807 44.7398 54.1723 45.4941 53.4443C46.2315 52.7331 47.2686 52.4408 48.4258 52.4053C49.1006 52.3846 49.7523 52.4964 50.3047 52.8271H50.3056C50.3137 52.8317 50.322 52.8363 50.3301 52.8408C50.3346 52.8436 50.3392 52.8468 50.3437 52.8496H50.3428C50.8007 53.1113 51.2369 53.4638 51.6543 53.8887C52.2027 54.3693 52.6642 54.7022 53.043 54.9102C53.3567 55.0632 53.8529 55.1683 54.5986 55.1455C54.9915 55.1334 55.5295 54.9512 56.2334 54.4502C56.8844 53.9868 57.5641 53.2314 58.2539 52.125C58.9198 51.0567 59.476 49.6976 59.9033 48.0283L60.4453 45.8936C59.9128 46.2741 59.3806 46.603 58.8467 46.875H58.8476C57.498 47.6022 55.983 47.9824 54.3232 48.0332C51.588 48.1169 49.326 47.3257 47.6758 45.5586L47.667 45.5488C46.092 43.8142 45.3055 41.5132 45.2207 38.7471C45.1944 37.8887 45.2946 36.9634 45.5088 35.9795L45.5107 35.9736L48.8974 20.8789V20.8721L48.8994 20.8652C49.1409 19.8594 49.6227 19.0134 50.4101 18.4482V18.4473C51.245 17.8351 52.4524 17.5868 53.8486 17.5439C54.9002 17.5117 55.8454 17.624 56.5654 17.9971C56.94 18.1912 57.2689 18.4639 57.5039 18.8311C57.7396 19.1994 57.8483 19.6128 57.8613 20.0361C57.8794 20.6306 57.7407 21.4678 57.5019 22.4766L54.1308 37.957C54.0461 38.3462 54.0108 38.7301 54.0224 39.1094C54.0419 39.7425 54.2174 40.1541 54.4707 40.4355C54.6531 40.6381 55.01 40.8298 55.7676 40.8066C56.7692 40.776 57.8972 40.4496 59.1611 39.7686C60.1253 39.2489 60.9592 38.6519 61.6758 37.9873C61.6864 37.5582 61.7469 37.1391 61.8623 36.7324H61.8613L69.4072 6.11328L69.5654 5.49609C69.7255 4.90202 69.8915 4.37745 70.0664 3.92773C70.2949 3.3403 70.5598 2.82139 70.8828 2.43945L70.8857 2.43555C71.6398 1.5542 72.8531 1.24788 74.1953 1.23926C75.469 1.23117 76.5915 1.37599 77.5293 1.70508C82.9956 0.969055 87.9949 0.510743 92.5244 0.332031L92.7754 0.321289L92.999 0.4375ZM52.417 60.8838L52.9951 60.8984C52.7901 60.8971 52.5893 60.8905 52.3926 60.8818C52.4007 60.8822 52.4088 60.8834 52.417 60.8838ZM57.2344 60.5059C57.4127 60.4701 57.5881 60.4312 57.7607 60.3906C57.5881 60.4313 57.4127 60.4701 57.2344 60.5059ZM57.9004 60.3555C57.9783 60.3364 58.0561 60.3189 58.1328 60.2988C58.1896 60.2839 58.2456 60.2674 58.3017 60.252C58.1698 60.2882 58.0359 60.3222 57.9004 60.3555ZM58.3779 60.2305C58.5408 60.1847 58.7011 60.1373 58.8584 60.0869C58.7011 60.1374 58.5408 60.1847 58.3779 60.2305ZM58.8974 60.0742C59.0625 60.0208 59.2249 59.9659 59.3838 59.9072H59.3828C59.2242 59.9658 59.0622 60.0208 58.8974 60.0742ZM59.0586 52.626C58.8762 52.9186 58.6927 53.1927 58.5068 53.4473C58.6929 53.1926 58.877 52.9188 59.0596 52.626H59.0586ZM48.8564 53.3604C48.8512 53.3599 48.846 53.3598 48.8408 53.3594L48.665 53.3516C48.7304 53.353 48.7942 53.3555 48.8564 53.3604ZM98.584 21.1934C99.0549 19.3137 100.96 18.1718 102.84 18.6426C104.72 19.1135 105.861 21.0187 105.391 22.8984L99.4873 46.4609L99.4394 46.6348C98.8976 48.4101 97.0524 49.4679 95.2314 49.0117C93.4105 48.5555 92.2824 46.7528 92.6416 44.9316L92.6806 44.7549L98.584 21.1934ZM42.3916 7.7793C43.7497 7.7793 45.0579 8.24464 45.5234 8.43359C46.093 8.6648 46.2674 9.20687 46.3252 9.44629C46.3955 9.7378 46.4053 10.0464 46.3994 10.2842C46.3932 10.5337 46.3682 10.7688 46.3467 10.9365C46.3357 11.0216 46.3245 11.0927 46.3164 11.1436C46.3124 11.1689 46.3092 11.1901 46.3066 11.2051C46.3061 11.208 46.3061 11.2114 46.3056 11.2139C46.3039 11.2262 46.3003 11.2447 46.2969 11.2686C46.29 11.3166 46.28 11.3875 46.2666 11.4795C46.2398 11.6638 46.2003 11.9333 46.1494 12.2734C46.0475 12.9537 45.8998 13.9189 45.7168 15.0586C45.351 17.3367 44.8425 20.3206 44.2734 23.1299V23.1318C43.1414 28.6773 42.3743 32.4088 41.9726 34.3232C41.2474 38.1418 40.5656 41.5342 39.9277 44.5L39.9248 44.5137C39.6876 45.5482 39.4206 46.4033 38.9639 47.0205C38.4448 47.7217 37.7594 48.0223 36.9639 48.1328C35.1139 48.3897 33.6266 48.169 32.6142 47.8672C32.1122 47.7175 31.7131 47.544 31.4385 47.3887C31.3166 47.3197 31.1623 47.2221 31.0381 47.1016C31.0037 47.0682 30.9507 47.014 30.8994 46.9404C30.8722 46.9014 30.8107 46.8076 30.7676 46.6719C30.7505 46.6339 30.7364 46.5989 30.7256 46.5684C30.6721 46.4175 30.6479 46.266 30.6348 46.1396C30.6084 45.8857 30.6139 45.5839 30.6367 45.2627C30.6829 44.611 30.8097 43.7052 30.998 42.5605C31.3733 40.2803 32.0188 36.9197 32.8642 32.4277L24.6123 45.7139C23.8933 46.9473 22.4958 47.7177 21.0254 47.7627C20.5274 47.7779 19.8743 47.793 19.2236 47.7412C18.5882 47.6906 17.8594 47.5699 17.2461 47.2568L17.2383 47.2529L17.2305 47.248C16.1401 46.6651 15.3228 45.5456 15.043 44.6338L15.0303 44.5908L15.0205 44.5469L12.3691 31.7324L11.7207 35.8809L10.2627 45.1895L10.2588 45.2158L10.2529 45.2422C10.1194 45.8603 9.92558 46.3642 9.58592 46.7715C9.25111 47.1726 8.84165 47.3941 8.50584 47.5674C7.77119 47.9464 6.64498 48.158 5.07713 48.2061C3.81533 48.2447 2.692 48.0662 1.86327 47.5127V47.5117C1.59672 47.3383 1.23221 47.0971 0.97557 46.6895C0.708264 46.2647 0.623821 45.7782 0.607406 45.2422C0.598074 44.9361 0.658368 44.4689 0.716781 44.0986C0.775332 43.7276 0.853677 43.3309 0.917953 43.0869L7.67479 13.6318C7.86576 12.7819 8.07146 12.051 8.29491 11.4512C8.49779 10.9066 8.73444 10.4206 9.02244 10.0449C9.44827 9.26743 10.4981 7.97736 12.2119 7.9248C13.1532 7.89598 14.2245 7.81154 15.2969 8.21973C15.9802 8.41051 16.4845 8.91733 16.7939 9.33203C17.1072 9.75182 17.3823 10.295 17.4355 10.751L17.4394 10.791L17.4424 10.877L21.7119 36.084C22.3448 35.1351 23.0788 34.0605 23.876 32.877C25.3432 30.6985 27.0529 28.1041 28.8232 25.1123L28.8252 25.1094C32.4317 19.0777 35.2566 14.3718 37.2988 10.9932C37.8783 10.0345 38.1681 9.52207 38.5517 9.09375C38.8719 8.60001 39.3989 8.36189 39.7441 8.2373C40.148 8.09161 40.5966 8.00333 40.8721 7.94434L40.8808 7.94238V7.94336C41.1973 7.87903 41.4284 7.833 41.6562 7.80762C41.8916 7.78142 42.1064 7.7793 42.3916 7.7793ZM125.017 7.45801C125.975 7.49773 126.826 7.82784 127.515 8.46875H127.516C127.925 8.85073 128.234 9.43704 128.416 9.9541C128.512 10.2263 128.586 10.5195 128.621 10.8076C128.653 11.0758 128.657 11.4043 128.562 11.7236L128.563 11.7246L126.553 18.7939C127.169 18.7471 127.765 18.7061 128.339 18.6719L129.304 18.6191C130.591 18.5221 131.626 18.4859 132.392 18.5176C133.292 18.5549 134.119 18.8561 134.68 19.5625C135.219 20.2414 135.382 21.1344 135.343 22.0771C135.303 23.033 134.835 23.8363 134.094 24.4727L134.092 24.4746C133.421 25.0474 132.658 25.4113 131.813 25.5244L131.778 25.5293L131.743 25.5312L124.471 25.9551L120.549 39.2705C120.539 39.898 120.689 40.33 120.926 40.6396C121.146 40.8939 121.498 41.0853 122.123 41.1113C123.061 41.1501 123.755 40.9182 124.285 40.4834C124.989 39.9006 125.769 39.0542 126.62 37.9199L126.623 37.915C127.269 37.0644 127.825 36.4081 128.281 35.9883C128.841 35.4735 129.522 35.197 130.285 35.2285C131.296 35.2705 132.223 35.4349 132.861 35.8789L132.86 35.8799C133.667 36.3994 133.862 37.3302 133.826 38.1895C133.809 38.5927 133.747 39.0573 133.645 39.5713L133.643 39.583C133.542 40.0608 133.412 40.5069 133.221 40.8525L133.22 40.8516C132.144 42.9015 130.461 44.6084 128.221 45.9844L128.22 45.9834C125.96 47.3958 123.428 48.0407 120.653 47.9258C117.919 47.8124 115.715 47.0665 114.219 45.5342L114.214 45.5293L114.209 45.5234C112.724 43.9559 112.094 41.8462 112.198 39.3301C112.21 39.0587 112.286 38.6719 112.388 38.2402C112.495 37.7824 112.651 37.1936 112.852 36.4795C113.252 35.0532 113.759 33.3497 114.37 31.3721L115.846 26.2803L113.706 26.3682L113.668 26.3701L113.629 26.3682C112.946 26.3398 112.339 26.0541 111.939 25.4814L111.862 25.3633C111.536 24.8261 111.411 24.214 111.437 23.5752C111.487 22.3931 111.962 21.2802 112.772 20.248H112.773C112.94 20.0348 113.151 19.9314 113.246 19.8887C113.373 19.8318 113.507 19.7901 113.629 19.7588C113.876 19.6954 114.189 19.6439 114.545 19.5996C115.248 19.5122 116.098 19.4324 117.091 19.3594H117.095L117.957 19.2988L120.04 11.7822L120.057 11.7188L120.083 11.6582C120.295 11.168 120.586 10.5302 120.933 9.94238C121.262 9.38403 121.715 8.73926 122.301 8.36426C123.186 7.78658 124.058 7.41845 125.017 7.45801ZM4.61717 47.2617L4.62889 47.2607C4.49532 47.2587 4.36604 47.2541 4.2412 47.2461C4.36246 47.2539 4.48777 47.2597 4.61717 47.2617ZM53.4014 47.0771L53.8271 47.0898C53.682 47.0885 53.5388 47.0831 53.3974 47.0762C53.3988 47.0762 53.4 47.0771 53.4014 47.0771ZM19.1885 46.7861C19.2099 46.7881 19.2315 46.7882 19.2529 46.79C19.1202 46.7787 18.9881 46.7663 18.8584 46.748L19.1885 46.7861ZM8.07127 46.7246L8.291 46.6074L8.29881 46.6025C8.22732 46.6433 8.15147 46.6832 8.07127 46.7246ZM17.8066 46.4727C17.814 46.4759 17.8217 46.4783 17.8291 46.4814C17.7773 46.4593 17.7265 46.437 17.6777 46.4121L17.8066 46.4727ZM53.8506 41.1572C53.8679 41.1741 53.8862 41.1899 53.9043 41.2061C53.8559 41.1628 53.8092 41.1177 53.7656 41.0693L53.8506 41.1572ZM46.2187 39.5508C46.2238 39.6074 46.2286 39.6637 46.2344 39.7197C46.2287 39.6637 46.2238 39.6074 46.2187 39.5508ZM46.1904 39.1992C46.1918 39.2218 46.1947 39.2442 46.1963 39.2666C46.1931 39.2199 46.1892 39.1731 46.1865 39.126C46.1879 39.1504 46.1889 39.1749 46.1904 39.1992ZM46.168 38.7178C46.169 38.7534 46.1715 38.7888 46.1728 38.8242C46.1715 38.7888 46.17 38.7534 46.1689 38.7178C46.1661 38.6249 46.1646 38.5307 46.165 38.4355C46.1645 38.5308 46.1651 38.6249 46.168 38.7178ZM29.6387 25.5957C29.5924 25.6739 29.5452 25.7514 29.499 25.8291C29.5453 25.7513 29.5932 25.6741 29.6396 25.5957C31.4428 22.58 33.05 19.896 34.4619 17.5439L29.6387 25.5957ZM43.7021 21.1084C43.5859 21.7218 43.4664 22.3358 43.3437 22.9414H43.3447C43.4154 22.5924 43.485 22.2406 43.5537 21.8877C43.6042 21.6284 43.6529 21.3682 43.7021 21.1084ZM44.7803 14.9082C44.6632 15.6369 44.5301 16.437 44.3867 17.2803C44.4184 17.094 44.4519 16.9103 44.4824 16.7285C44.59 16.0873 44.6901 15.476 44.7812 14.9082H44.7803ZM104.544 6.51855C107.152 6.51855 109.267 8.63304 109.267 11.2412C109.267 13.8493 107.152 15.9639 104.544 15.9639C101.936 15.9638 99.8214 13.8493 99.8213 11.2412C99.8213 8.63307 101.936 6.5186 104.544 6.51855ZM15.1553 9.16992C15.2029 9.18837 15.2499 9.20936 15.2959 9.2334C15.2502 9.20942 15.2036 9.1883 15.1562 9.16992L15.0058 9.12305L15.1553 9.16992ZM77.1025 2.55859L77.4258 2.67578L77.1015 2.55762C76.9969 2.52349 76.8887 2.49231 76.7773 2.46289C76.8891 2.49242 76.9975 2.52432 77.1025 2.55859ZM74.6728 2.19141C74.6569 2.19098 74.641 2.1908 74.625 2.19043L74.2012 2.1875L74.6728 2.19141Z" fill="url(#paint0_linear_1837_27043)"/>
<defs>
<linearGradient id="paint0_linear_1837_27043" x1="102.5" y1="-7.29102" x2="102.5" y2="47.209" gradientUnits="userSpaceOnUse">
<stop stop-color="#5096FF"/>
<stop offset="1" stop-color="#0067F5"/>
</linearGradient>
</defs>
</svg>
