<svg width="63" height="63" viewBox="0 0 63 63" fill="none" xmlns="http://www.w3.org/2000/svg">
<path d="M19.4939 43.8988C17.4411 46.0189 17.4755 49.4693 20.0174 50.9684C23.272 52.8879 26.9819 53.9758 30.8153 54.0919C36.4446 54.2626 41.9349 52.3254 46.2108 48.6599C50.4867 44.9944 53.2401 39.8647 53.9318 34.2753C54.6234 28.686 53.2035 23.0398 49.9502 18.4426C46.6968 13.8453 41.8443 10.6283 36.3432 9.42153C30.842 8.21476 25.0885 9.1052 20.2095 11.9185C15.3305 14.7317 11.6775 19.2651 9.96605 24.6307C8.8006 28.2845 8.59261 32.145 9.32025 35.8527C9.88855 38.7485 13.1311 39.9286 15.8132 38.6978C18.4954 37.467 19.5321 34.2331 19.5858 31.2825C19.6067 30.1357 19.7931 28.9889 20.1474 27.8783C21.0497 25.0495 22.9755 22.6595 25.5477 21.1764C28.1199 19.6933 31.1531 19.2238 34.0533 19.86C36.9535 20.4962 39.5117 22.1923 41.2269 24.6159C42.942 27.0395 43.6906 30.0162 43.3259 32.9629C42.9613 35.9095 41.5097 38.6139 39.2555 40.5464C37.0013 42.4788 34.1068 43.5001 31.139 43.4101C29.9738 43.3748 28.8302 43.1692 27.7418 42.8074C24.9414 41.8767 21.5467 41.7788 19.4939 43.8988Z" fill="#A4B2CF" fill-opacity="0.5"/>
<circle cx="31.5002" cy="31.4992" r="8.28925" fill="#7485AA"/>
<path d="M19.4939 43.8988C17.4411 46.0189 17.4755 49.4692 20.0173 50.9684C21.0298 51.5655 22.0897 52.0842 23.1879 52.5184C25.9481 53.61 28.8963 54.1472 31.8642 54.0994C34.8321 54.0516 37.7615 53.4196 40.4851 52.2397C41.5687 51.7702 42.6113 51.2177 43.604 50.5883C46.0963 49.0079 46.0195 45.5583 43.8994 43.5055L43.4224 43.0437C41.5658 41.2459 38.6083 41.4063 36.2369 42.4336C34.801 43.0557 33.2567 43.3888 31.692 43.414C30.1274 43.4393 28.5731 43.156 27.1179 42.5806C24.7146 41.6302 21.7535 41.5652 19.9558 43.4218L19.4939 43.8988Z" fill="#7485AA"/>
</svg>
