<svg width="20" height="19" viewBox="0 0 20 19" fill="none" xmlns="http://www.w3.org/2000/svg">
<path d="M10 0C15.5228 0 20 4.25329 20 9.5C20 14.7467 15.5228 19 10 19C4.47715 19 0 14.7467 0 9.5C0 4.25329 4.47715 0 10 0ZM9.93066 4.89062C7.98828 4.89062 6.65527 6.0332 6.66797 7.83594H8.4834C8.4834 6.95996 9.04199 6.41406 9.90527 6.41406C10.7429 6.41426 11.3652 6.92203 11.3652 7.73438C11.3652 8.45794 10.908 8.96596 10.0449 9.79102L6.74414 12.8252L6.75684 14.209H13.333V12.6348H9.41016V12.584L10.8066 11.2256C12.698 9.51188 13.2061 8.64839 13.2061 7.60742C13.2061 6.00794 11.8982 4.89081 9.93066 4.89062Z" fill="#2167FF"/>
</svg>
