<svg width="20" height="19" viewBox="0 0 20 19" fill="none" xmlns="http://www.w3.org/2000/svg">
<path d="M10 0C15.5228 0 20 4.25329 20 9.5C20 14.7467 15.5228 19 10 19C4.47715 19 0 14.7467 0 9.5C0 4.25329 4.47715 0 10 0ZM10 4.68164C8.12109 4.68164 6.68652 5.77344 6.66113 7.36035H8.48926C8.51465 6.66211 9.1875 6.20508 10 6.20508C10.8125 6.20508 11.3457 6.6875 11.3457 7.38574C11.3457 8.10938 10.7109 8.60449 9.80957 8.60449H8.95898V10.0137H9.80957C10.8887 10.0137 11.5615 10.5469 11.5488 11.2959C11.5615 12.0322 10.9014 12.5527 9.9873 12.5527C9.09863 12.5527 8.43848 12.0957 8.40039 11.4102H6.4707C6.50879 13.0098 7.95605 14.127 9.97461 14.127C12.0439 14.127 13.542 12.9971 13.5293 11.4229C13.542 10.2803 12.793 9.45508 11.4473 9.29004V9.21387C12.4756 9.03613 13.1992 8.2998 13.1865 7.27148C13.1992 5.81152 11.917 4.68164 10 4.68164Z" fill="#2167FF"/>
</svg>
