<svg width="58" height="60" viewBox="0 0 58 60" fill="none" xmlns="http://www.w3.org/2000/svg">
<ellipse opacity="0.4" cx="29" cy="30.291" rx="29" ry="29.5" fill="#8FBCFA"/>
<path d="M28.6836 16.791C30.0642 16.7912 31.1836 17.9104 31.1836 19.291C31.1836 19.3885 31.1759 19.4845 31.165 19.5791C35.208 20.5576 38.1836 24.0555 38.1836 30.291C38.1836 31.0594 38.1379 31.7595 38.0508 32.3975C37.9692 32.9942 38.0087 33.6068 38.2324 34.166L39.0371 36.1768C39.8254 38.1473 38.3744 40.291 36.2519 40.291H21.0029C18.8443 40.291 17.3921 38.0795 18.25 36.0986L19.0869 34.167C19.3365 33.5905 19.388 32.9511 19.3066 32.3281C19.2257 31.7088 19.1836 31.0316 19.1836 30.291C19.1836 24.0558 22.1585 20.5578 26.2011 19.5791C26.1903 19.4845 26.1836 19.3885 26.1836 19.291C26.1836 17.9103 27.3029 16.791 28.6836 16.791Z" fill="white"/>
<path d="M32.1836 41.29C31.9386 42.7592 30.4653 43.8886 28.6836 43.8887C26.9018 43.8887 25.4286 42.7592 25.1836 41.29H32.1836Z" fill="white"/>
</svg>
