<svg width="23" height="25" viewBox="0 0 23 25" fill="none" xmlns="http://www.w3.org/2000/svg">
<g filter="url(#filter0_i_1837_29636)">
<path d="M11.0547 0C17.16 0 22.1093 4.94934 22.1094 11.0547C22.1094 16.5096 18.1585 21.0411 12.9621 21.9448C12.8067 21.9718 12.6728 22.0722 12.6081 22.216L11.4775 24.7266C11.3134 25.0911 10.796 25.0911 10.6318 24.7266L9.50036 22.2158C9.43561 22.0722 9.30173 21.9718 9.14646 21.9448C3.95056 21.0406 0 16.5093 0 11.0547C4.89629e-05 4.94937 4.94937 4.89644e-05 11.0547 0Z" fill="url(#paint0_linear_1837_29636)"/>
</g>
<path d="M11.0068 14.0016C11.61 14.0016 12.0996 14.5 12.0996 15.1149C12.0996 15.7297 11.61 16.2282 11.0068 16.2282C10.4039 16.2279 9.91507 15.7296 9.91505 15.1149C9.91505 14.5001 10.4038 14.0018 11.0068 14.0016ZM9.30958 6.15785C9.91789 5.79812 10.6263 5.6549 11.3233 5.75062C12.0203 5.84645 12.667 6.1759 13.1602 6.68715C13.6532 7.1983 13.9655 7.86198 14.0479 8.57386C14.1302 9.28593 13.9773 10.0057 13.6143 10.6198C13.2511 11.2339 12.6982 11.7081 12.042 11.9664C11.9901 11.9869 11.9364 12.0016 11.8838 12.0192V12.6618C11.8837 13.1329 11.5014 13.5143 11.0303 13.5143C10.5593 13.5141 10.1779 13.1328 10.1777 12.6618V11.7243C10.1777 11.6417 10.1891 11.5615 10.2109 11.486C10.2051 11.3858 10.2153 11.2821 10.2451 11.1803C10.3867 10.6987 10.9304 10.4502 11.3975 10.2662C11.6834 10.1537 11.9247 9.94688 12.083 9.67933C12.2412 9.41178 12.3082 9.09798 12.2725 8.78773C12.2366 8.47737 12.0997 8.18731 11.8848 7.96449C11.6699 7.7419 11.3886 7.59807 11.085 7.55629C10.7812 7.51453 10.4722 7.57727 10.207 7.73402C9.94196 7.89078 9.73541 8.13305 9.62013 8.4225C9.61495 8.43551 9.61026 8.4494 9.60548 8.46254C9.43752 8.92361 9.19024 9.44217 8.71876 9.57777C8.24023 9.71505 7.72796 9.43194 7.73048 8.93422C7.73276 8.52686 7.81071 8.12046 7.9629 7.73793C8.2273 7.07357 8.70125 6.51766 9.30958 6.15785Z" fill="url(#paint1_linear_1837_29636)"/>
<defs>
<filter id="filter0_i_1837_29636" x="-0.154612" y="-1.85535" width="22.264" height="26.8553" filterUnits="userSpaceOnUse" color-interpolation-filters="sRGB">
<feFlood flood-opacity="0" result="BackgroundImageFix"/>
<feBlend mode="normal" in="SourceGraphic" in2="BackgroundImageFix" result="shape"/>
<feColorMatrix in="SourceAlpha" type="matrix" values="0 0 0 0 0 0 0 0 0 0 0 0 0 0 0 0 0 0 127 0" result="hardAlpha"/>
<feOffset dx="-0.154612" dy="-1.85535"/>
<feGaussianBlur stdDeviation="1.54612"/>
<feComposite in2="hardAlpha" operator="arithmetic" k2="-1" k3="1"/>
<feColorMatrix type="matrix" values="0 0 0 0 0.557692 0 0 0 0 0.557692 0 0 0 0 0.557692 0 0 0 0.25 0"/>
<feBlend mode="normal" in2="shape" result="effect1_innerShadow_1837_29636"/>
</filter>
<linearGradient id="paint0_linear_1837_29636" x1="9.65015" y1="6.17444" x2="15.8607" y2="27.8404" gradientUnits="userSpaceOnUse">
<stop stop-color="#F6F6F6"/>
<stop offset="1" stop-color="#F4E8FF"/>
</linearGradient>
<linearGradient id="paint1_linear_1837_29636" x1="6.18435" y1="4.1756" x2="11.0064" y2="16.2284" gradientUnits="userSpaceOnUse">
<stop stop-color="#EE23F9" stop-opacity="0.66"/>
<stop offset="1" stop-color="#31DFFF"/>
</linearGradient>
</defs>
</svg>
