<svg width="27" height="24" viewBox="0 0 27 24" fill="none" xmlns="http://www.w3.org/2000/svg">
<path d="M13.0928 3.95703L12.4925 4.62761L13.0926 5.16481L13.6929 4.62776L13.0928 3.95703ZM20.9688 2.38281L21.3431 1.56436L21.3429 1.56429L20.9688 2.38281ZM25.1875 9.21875L26.0875 9.21875L26.0875 9.21872L25.1875 9.21875ZM22.2998 16.3506L21.627 15.7528L21.6267 15.7531L22.2998 16.3506ZM17.0342 20.877L17.591 21.584L17.5916 21.5835L17.0342 20.877ZM15.2119 22.1826L15.6655 22.96L15.6659 22.9597L15.2119 22.1826ZM10.9756 22.1826L10.521 22.9594L10.521 22.9594L10.9756 22.1826ZM9.15332 20.877L8.59619 21.5838L8.59649 21.584L9.15332 20.877ZM3.8877 16.3506L4.56059 15.7529L4.56034 15.7526L3.8877 16.3506ZM1 9.21875L0.1 9.21872V9.21875H1ZM5.21875 2.38281L4.84456 1.56429L4.84427 1.56442L5.21875 2.38281ZM13.0928 3.95703L13.6929 4.62776C16.0537 2.5155 18.5887 2.28436 20.5946 3.20134L20.9688 2.38281L21.3429 1.56429C18.6255 0.322016 15.3348 0.743462 12.4927 3.2863L13.0928 3.95703ZM20.9688 2.38281L20.5944 3.20127C22.752 4.18806 24.2874 6.50453 24.2875 9.21878L25.1875 9.21875L26.0875 9.21872C26.0874 5.83131 24.169 2.85684 21.3431 1.56436L20.9688 2.38281ZM25.1875 9.21875H24.2875C24.2875 11.9371 23.1657 14.0208 21.627 15.7528L22.2998 16.3506L22.9726 16.9483C24.7121 14.9904 26.0875 12.4989 26.0875 9.21875H25.1875ZM22.2998 16.3506L21.6267 15.7531C20.0874 17.4873 18.1345 18.8625 16.4767 20.1704L17.0342 20.877L17.5916 21.5835C19.1423 20.3601 21.2948 18.8386 22.9729 16.948L22.2998 16.3506ZM17.0342 20.877L16.4773 20.1699C15.8913 20.6314 15.3226 21.0756 14.7579 21.4055L15.2119 22.1826L15.6659 22.9597C16.3567 22.5561 17.0228 22.0315 17.591 21.584L17.0342 20.877ZM15.2119 22.1826L14.7584 21.4052C14.1943 21.7344 13.6416 21.9457 13.0938 21.9457V22.8457V23.7457C14.0982 23.7457 14.9764 23.362 15.6655 22.96L15.2119 22.1826ZM13.0938 22.8457V21.9457C12.5454 21.9457 11.9926 21.735 11.4302 21.4059L10.9756 22.1826L10.521 22.9594C11.2117 23.3636 12.0898 23.7457 13.0938 23.7457V22.8457ZM10.9756 22.1826L11.4302 21.4059C10.8661 21.0757 10.2956 20.6309 9.71015 20.1699L9.15332 20.877L8.59649 21.584C9.16529 22.032 9.83191 22.5561 10.521 22.9594L10.9756 22.1826ZM9.15332 20.877L9.71045 20.1701C8.05368 18.8642 6.09998 17.4861 4.56059 15.7529L3.8877 16.3506L3.2148 16.9483C4.8929 18.8376 7.04448 20.3607 8.59619 21.5838L9.15332 20.877ZM3.8877 16.3506L4.56034 15.7526C3.02187 14.022 1.9 11.9372 1.9 9.21875H1H0.1C0.1 12.4988 1.47528 14.9914 3.21505 16.9485L3.8877 16.3506ZM1 9.21875L1.9 9.21878C1.90008 6.50472 3.43652 4.18806 5.59323 3.20121L5.21875 2.38281L4.84427 1.56442C2.0198 2.85683 0.100103 5.83112 0.1 9.21872L1 9.21875ZM5.21875 2.38281L5.59294 3.20134C7.59827 2.28459 10.1337 2.51608 12.4925 4.62761L13.0928 3.95703L13.693 3.28646C10.8528 0.743955 7.5614 0.322271 4.84456 1.56429L5.21875 2.38281Z" fill="black"/>
</svg>
