<svg width="25" height="22" viewBox="0 0 25 22" fill="none" xmlns="http://www.w3.org/2000/svg">
<path d="M12.0928 2.95688C14.6943 0.629327 17.6071 0.303032 19.9688 1.38266C22.4605 2.52229 24.1874 5.16777 24.1875 8.2186C24.1875 11.2178 22.9389 13.5054 21.2998 15.3504C19.6911 17.1628 17.6384 18.6112 16.0342 19.8768C15.4571 20.3313 14.8396 20.8157 14.2119 21.1825C13.5854 21.548 12.8699 21.8455 12.0938 21.8455C11.3176 21.8455 10.6021 21.5491 9.97559 21.1825C9.34899 20.8157 8.73042 20.3313 8.15332 19.8768C6.54908 18.6123 4.49644 17.1617 2.8877 15.3504C1.24857 13.5066 0 11.2178 0 8.2186C9.27109e-05 5.16777 1.72816 2.52229 4.21875 1.38266C6.57983 0.303276 9.49323 0.629862 12.0928 2.95688Z" fill="url(#paint0_linear_3568_51749)"/>
<defs>
<linearGradient id="paint0_linear_3568_51749" x1="12.0938" y1="0.791016" x2="12.0938" y2="21.8455" gradientUnits="userSpaceOnUse">
<stop stop-color="#3C89F3"/>
<stop offset="1" stop-color="#0800FF"/>
</linearGradient>
</defs>
</svg>
