<svg width="20" height="25" viewBox="0 0 20 25" fill="none" xmlns="http://www.w3.org/2000/svg">
<path d="M14.238 9.82546C14.4572 10.1361 14.2351 10.5648 13.8549 10.5648H12.1505C11.8916 10.5648 11.6816 10.7747 11.6816 11.0337V20.5412C11.6816 20.8001 11.4716 21.0101 11.2127 21.0101H2.93374C2.67475 21.0101 2.4648 20.8001 2.4648 20.5412V11.0337C2.4648 10.7747 2.25485 10.5648 1.99586 10.5648H0.469276C0.0890776 10.5648 -0.133085 10.1361 0.0861253 9.82546L6.77891 0.341145C6.96574 0.0763895 7.35839 0.076389 7.54522 0.341144L14.238 9.82546Z" fill="#FF65B4"/>
<path d="M14.238 9.82546C14.4572 10.1361 14.2351 10.5648 13.8549 10.5648H12.1505C11.8916 10.5648 11.6816 10.7747 11.6816 11.0337V20.5412C11.6816 20.8001 11.4716 21.0101 11.2127 21.0101H2.93374C2.67475 21.0101 2.4648 20.8001 2.4648 20.5412V11.0337C2.4648 10.7747 2.25485 10.5648 1.99586 10.5648H0.469276C0.0890776 10.5648 -0.133085 10.1361 0.0861253 9.82546L6.77891 0.341145C6.96574 0.0763895 7.35839 0.076389 7.54522 0.341144L14.238 9.82546Z" fill="#FF65B4"/>
<path d="M15.7212 9.68288C15.9404 9.99353 15.7182 10.4222 15.338 10.4222H13.6327C13.3737 10.4222 13.1638 10.6322 13.1638 10.8912V20.4572C13.1638 20.715 12.9556 20.9245 12.6978 20.9261L4.41201 20.9779C4.15188 20.9795 3.94014 20.7691 3.94014 20.5089V10.8912C3.94014 10.6322 3.73019 10.4222 3.4712 10.4222H1.95243C1.57223 10.4222 1.35007 9.99353 1.56928 9.68289L8.26207 0.198567C8.4489 -0.0661886 8.84154 -0.0661891 9.02837 0.198566L15.7212 9.68288Z" fill="#FF4C85" style="mix-blend-mode:hard-light"/>
<path d="M13.268 19.6318L11.4697 20.9805H13.268V19.6318Z" fill="white"/>
<circle cx="13.8298" cy="18.8447" r="5.16991" fill="#FFE733"/>
<g filter="url(#filter0_f_1837_29615)">
<circle cx="13.83" cy="18.8452" r="4.49558" fill="url(#paint0_linear_1837_29615)"/>
</g>
<g filter="url(#filter1_f_1837_29615)">
<circle cx="15.2911" cy="19.6309" r="1.23628" transform="rotate(180 15.2911 19.6309)" fill="url(#paint1_linear_1837_29615)" fill-opacity="0.5"/>
</g>
<g filter="url(#filter2_f_1837_29615)">
<circle cx="10.346" cy="19.6309" r="1.23628" transform="rotate(180 10.346 19.6309)" fill="url(#paint2_linear_1837_29615)" fill-opacity="0.5"/>
</g>
<ellipse cx="11.2449" cy="18.1704" rx="0.337168" ry="0.674336" fill="#1C1C1C"/>
<ellipse cx="14.167" cy="18.1704" rx="0.337168" ry="0.674336" fill="#1C1C1C"/>
<defs>
<filter id="filter0_f_1837_29615" x="8.43536" y="13.4505" width="10.7894" height="10.7894" filterUnits="userSpaceOnUse" color-interpolation-filters="sRGB">
<feFlood flood-opacity="0" result="BackgroundImageFix"/>
<feBlend mode="normal" in="SourceGraphic" in2="BackgroundImageFix" result="shape"/>
<feGaussianBlur stdDeviation="0.449558" result="effect1_foregroundBlur_1837_29615"/>
</filter>
<filter id="filter1_f_1837_29615" x="13.1556" y="17.4954" width="4.27089" height="4.27089" filterUnits="userSpaceOnUse" color-interpolation-filters="sRGB">
<feFlood flood-opacity="0" result="BackgroundImageFix"/>
<feBlend mode="normal" in="SourceGraphic" in2="BackgroundImageFix" result="shape"/>
<feGaussianBlur stdDeviation="0.449558" result="effect1_foregroundBlur_1837_29615"/>
</filter>
<filter id="filter2_f_1837_29615" x="8.2105" y="17.4954" width="4.27089" height="4.27089" filterUnits="userSpaceOnUse" color-interpolation-filters="sRGB">
<feFlood flood-opacity="0" result="BackgroundImageFix"/>
<feBlend mode="normal" in="SourceGraphic" in2="BackgroundImageFix" result="shape"/>
<feGaussianBlur stdDeviation="0.449558" result="effect1_foregroundBlur_1837_29615"/>
</filter>
<linearGradient id="paint0_linear_1837_29615" x1="18.3256" y1="19.6109" x2="9.33447" y2="18.0795" gradientUnits="userSpaceOnUse">
<stop stop-color="#FFC72C"/>
<stop offset="1" stop-color="#FFEA04"/>
</linearGradient>
<linearGradient id="paint1_linear_1837_29615" x1="15.2911" y1="18.3946" x2="15.2911" y2="20.8672" gradientUnits="userSpaceOnUse">
<stop stop-color="#FFA33B"/>
<stop offset="1" stop-color="#FF799B"/>
</linearGradient>
<linearGradient id="paint2_linear_1837_29615" x1="10.346" y1="18.3946" x2="10.346" y2="20.8672" gradientUnits="userSpaceOnUse">
<stop stop-color="#FFA33B"/>
<stop offset="1" stop-color="#FF799B"/>
</linearGradient>
</defs>
</svg>
