<svg width="40" height="41" viewBox="0 0 40 41" fill="none" xmlns="http://www.w3.org/2000/svg">
<path d="M20 0.208984C31.0457 0.208984 40 9.16329 40 20.209C40 31.2547 31.0457 40.209 20 40.209C8.9543 40.209 0 31.2547 0 20.209C0 9.16329 8.9543 0.208984 20 0.208984ZM13.8584 11.0859C13.6833 11.0938 13.5124 11.1462 13.3633 11.2383C13.2142 11.3304 13.0913 11.4594 13.0059 11.6123C12.9205 11.7653 12.8752 11.938 12.875 12.1133L12.876 18.6797L23.1875 19.7188L12.877 20.7383V27.3047C12.8771 27.48 12.9224 27.6526 13.0078 27.8057C13.0933 27.9587 13.2161 28.0875 13.3652 28.1797C13.5143 28.2718 13.6844 28.3241 13.8594 28.332C14.0345 28.3399 14.2094 28.303 14.3662 28.2246L29.5557 20.6289C29.7262 20.5434 29.8695 20.4123 29.9697 20.25C30.07 20.0875 30.123 19.8999 30.123 19.709C30.123 19.5182 30.0699 19.3313 29.9697 19.1689C29.8695 19.0065 29.7263 18.8747 29.5557 18.7891L14.3643 11.1934C14.2076 11.1151 14.0334 11.0781 13.8584 11.0859Z" fill="#2167FF"/>
</svg>
