<svg width="24" height="25" viewBox="0 0 24 25" fill="none" xmlns="http://www.w3.org/2000/svg">
<path d="M21.71 20.4994L18 16.8194C19.4401 15.0238 20.1375 12.7447 19.9488 10.4507C19.7601 8.15668 18.6997 6.02216 16.9855 4.48602C15.2714 2.94988 13.0338 2.12889 10.7329 2.19185C8.43203 2.25481 6.24272 3.19694 4.61514 4.82452C2.98756 6.4521 2.04543 8.64142 1.98247 10.9423C1.91951 13.2432 2.7405 15.4807 4.27664 17.1949C5.81278 18.909 7.9473 19.9695 10.2413 20.1582C12.5353 20.3469 14.8144 19.6495 16.61 18.2094L20.29 21.8894C20.383 21.9831 20.4936 22.0575 20.6154 22.1083C20.7373 22.159 20.868 22.1852 21 22.1852C21.132 22.1852 21.2627 22.159 21.3846 22.1083C21.5064 22.0575 21.617 21.9831 21.71 21.8894C21.8902 21.7029 21.991 21.4537 21.991 21.1944C21.991 20.935 21.8902 20.6858 21.71 20.4994ZM11 18.2094C9.61553 18.2094 8.26215 17.7988 7.111 17.0297C5.95986 16.2605 5.06265 15.1672 4.53284 13.8882C4.00303 12.6091 3.8644 11.2016 4.1345 9.84375C4.4046 8.48588 5.07128 7.2386 6.05025 6.25963C7.02922 5.28066 8.2765 4.61398 9.63436 4.34388C10.9922 4.07378 12.3997 4.21241 13.6788 4.74222C14.9579 5.27203 16.0511 6.16924 16.8203 7.32039C17.5895 8.47153 18 9.82491 18 11.2094C18 13.0659 17.2625 14.8464 15.9497 16.1591C14.637 17.4719 12.8565 18.2094 11 18.2094Z" fill="#828282"/>
</svg>
