<svg width="23" height="24" viewBox="0 0 23 24" fill="none" xmlns="http://www.w3.org/2000/svg">
<path d="M13.1876 11.7188L2.87596 10.68L2.875 4.11347C2.87513 3.93812 2.92005 3.76571 3.00551 3.61259C3.09097 3.45947 3.21413 3.33073 3.36331 3.23857C3.5125 3.14641 3.68275 3.0939 3.85792 3.086C4.0331 3.07811 4.20739 3.11511 4.36425 3.19347L19.5557 10.7892C19.7264 10.8748 19.8699 11.0062 19.9702 11.1687C20.0704 11.3311 20.1235 11.5183 20.1235 11.7092C20.1235 11.9001 20.0704 12.0873 19.9702 12.2498C19.8699 12.4122 19.7264 12.5436 19.5557 12.6292L4.36617 20.225C4.2093 20.3033 4.03502 20.3403 3.85984 20.3324C3.68467 20.3246 3.51441 20.272 3.36523 20.1799C3.21605 20.0877 3.09289 19.959 3.00743 19.8059C2.92197 19.6527 2.87704 19.4803 2.87692 19.305V12.7385L13.1876 11.7188Z" fill="white"/>
</svg>
