<svg width="20" height="20" viewBox="0 0 20 20" fill="none" xmlns="http://www.w3.org/2000/svg">
<path d="M14 5.5L18.5 12.5C17.3333 13.6667 14.9 16.5 14.5 16.5C14 16.5 11.5 19 11.5 19.5C11.5 19.9 6.16667 14.8333 5.5 14.5C2.66667 11.1667 1.5 7.9 1.5 7.5C1.5 7 2.5 3 3 2C3.4 1.2 5.83333 1 7 1L10.5 3L7 5.5V7.5L10.5 8L14 5.5Z" fill="url(#paint0_linear_1837_29607)"/>
<path d="M14 0C17.3137 0 20 2.58827 20 5.78098C20 6.73708 19.8092 7.74219 19.4277 8.7963L17.8284 7.17418C17.9254 6.76238 17.9811 6.36645 17.996 5.98679L18 5.78098C18 3.73695 16.2326 2.03402 14 2.03402C13.2389 2.03402 12.516 2.23282 11.8946 2.59537L9.09468 5.33996C8.70416 5.73712 8.70416 6.38104 9.09468 6.77821C9.4852 7.17542 10.1184 7.17542 10.5089 6.77821L13.2228 3.90776L14.584 5.31088L18.4451 9.23742C19.6167 10.429 19.6167 12.3608 18.4451 13.5523C18.0702 13.9336 17.6208 14.1929 17.1445 14.3301L17.0951 14.3432C17.305 15.3241 17.0351 16.3899 16.2853 17.1525C15.5135 17.9374 14.4258 18.2053 13.4384 17.956C13.3029 18.4277 13.0503 18.8624 12.682 19.2038C11.6297 20.179 10.0925 20.2694 8.94145 19.4142L8.76416 19.2576L7.98553 18.5474C2.66184 13.608 0 9.35252 0 5.78098C0 2.58822 2.68631 0 6.00004 0C7.53717 0 8.93929 0.556917 10.0009 1.47276C11.0616 0.556583 12.4633 0 14 0ZM6.00004 2.03402C3.76743 2.03402 2.00001 3.73695 2.00001 5.78098C2.00001 8.6397 4.38632 12.4547 9.32095 17.0332L9.77001 17.443C10.1656 17.8489 10.8979 18.1634 11.3236 17.746C11.7102 17.3668 11.6706 16.8392 11.3674 16.448L10.7502 15.8076L8.43937 13.4575L8.39685 13.4195L9.82785 11.9631L11.8992 14.1L12.682 14.8958C12.7351 14.9498 12.7862 15.0059 12.835 15.064L13.3347 15.5817C13.8553 16.1113 14.5009 16.131 14.8914 15.7338C15.2819 15.3366 15.2696 14.673 14.7489 14.1434L12.3571 11.6753L11.2348 10.5332L12.6488 9.09407L13.3723 9.83009C13.4455 9.89183 13.5159 9.95702 13.5832 10.0255L14.4951 10.9735L15.6167 12.114C16.0072 12.5112 16.6404 12.5112 17.0309 12.114C17.4215 11.7169 17.4215 11.0729 17.0309 10.6757L13.267 6.84862L11.9231 8.21651C10.7515 9.40805 8.85206 9.40805 7.68046 8.21651C6.50892 7.02501 6.50892 5.09315 7.68046 3.90166L8.61604 2.94934L8.51952 2.87173C7.81542 2.33493 6.93646 2.03402 6.00004 2.03402Z" fill="#05F038"/>
<defs>
<linearGradient id="paint0_linear_1837_29607" x1="10" y1="1" x2="10" y2="19.5225" gradientUnits="userSpaceOnUse">
<stop stop-color="#1AFF81"/>
<stop offset="1" stop-color="#F9FF57"/>
</linearGradient>
</defs>
</svg>
